<?xml version="1.0" encoding="UTF-8" standalone="no"?>
<svg
   xmlns:dc="http://purl.org/dc/elements/1.1/"
   xmlns:cc="http://creativecommons.org/ns#"
   xmlns:rdf="http://www.w3.org/1999/02/22-rdf-syntax-ns#"
   xmlns:svg="http://www.w3.org/2000/svg"
   xmlns="http://www.w3.org/2000/svg"
   xmlns:sodipodi="http://sodipodi.sourceforge.net/DTD/sodipodi-0.dtd"
   xmlns:inkscape="http://www.inkscape.org/namespaces/inkscape"
   version="1.1"
   id="svg2"
   viewBox="0 0 45.000001 45.000001"
   height="45"
   width="45"
   inkscape:version="0.91 r13725"
   sodipodi:docname="AILab.svg">
  <sodipodi:namedview
     pagecolor="#ffffff"
     bordercolor="#666666"
     borderopacity="1"
     objecttolerance="10"
     gridtolerance="10"
     guidetolerance="10"
     inkscape:pageopacity="0"
     inkscape:pageshadow="2"
     inkscape:window-width="1406"
     inkscape:window-height="859"
     id="namedview4335"
     showgrid="false"
     inkscape:zoom="5.2444444"
     inkscape:cx="22.5"
     inkscape:cy="22.5"
     inkscape:window-x="0"
     inkscape:window-y="0"
     inkscape:window-maximized="0"
     inkscape:current-layer="svg2"
     inkscape:showpageshadow="false" />
  <defs
     id="defs4" />
  <metadata
     id="metadata7">
    <rdf:RDF>
      <cc:Work
         rdf:about="">
        <dc:format>image/svg+xml</dc:format>
        <dc:type
           rdf:resource="http://purl.org/dc/dcmitype/StillImage" />
        <dc:title></dc:title>
      </cc:Work>
    </rdf:RDF>
  </metadata>
  <path
     style="fill:#424242;fill-opacity:1;fill-rule:evenodd;stroke:none"
     d="m -9.1621621e-7,0 0,7.748 L 7.7479985,7.748 7.7479985,0 -9.1621621e-7,0 Z"
     id="path4872"
     inkscape:connector-curvature="0" />
  <path
     style="fill:#424242;fill-opacity:1;fill-rule:evenodd;stroke:none"
     d="m 37.254285,0 0,7.748 7.745716,0 0,-7.748 -7.745716,0 z"
     id="path4874"
     inkscape:connector-curvature="0" />
  <path
     style="fill:#424242;fill-opacity:1;fill-rule:evenodd;stroke:none"
     d="m 9.3141365,0 0,7.748 7.7479905,0 0,-7.748 -7.7479905,0 z"
     id="path4876"
     inkscape:connector-curvature="0" />
  <path
     style="fill:#424242;fill-opacity:1;fill-rule:evenodd;stroke:none"
     d="m 18.628265,0 0,7.748 7.748026,0 0,-7.748 -7.748026,0 z"
     id="path4878"
     inkscape:connector-curvature="0" />
  <path
     style="fill:#424242;fill-opacity:1;fill-rule:evenodd;stroke:none"
     d="m 37.254281,18.626 0,7.7457 7.745716,0 0,-7.7457 -7.745716,0 z"
     id="path4886"
     inkscape:connector-curvature="0" />
  <path
     style="fill:#424242;fill-opacity:1;fill-rule:evenodd;stroke:none"
     d="m 37.254285,27.9378 0,7.748 7.745716,0 0,-7.748 -7.745716,0 z"
     id="path4888"
     inkscape:connector-curvature="0" />
  <path
     style="fill:#424242;fill-opacity:1;fill-rule:evenodd;stroke:none"
     d="m 37.254285,37.252 0,7.748 7.745713,0 0,-7.748 -7.745713,0 z"
     id="path4890"
     inkscape:connector-curvature="0" />
  <path
     style="fill:#424242;fill-opacity:1;fill-rule:evenodd;stroke:none"
     d="m 27.942419,18.626 0,7.7457 7.745716,0 0,-7.7457 -7.745716,0 z"
     id="path4892"
     inkscape:connector-curvature="0" />
  <path
     style="fill:#424242;fill-opacity:1;fill-rule:evenodd;stroke:none"
     d="m 18.625956,9.313 0,7.748 7.748027,0 0,-7.748 -7.748027,0 z"
     id="path4894"
     inkscape:connector-curvature="0" />
  <path
     style="fill:#424242;fill-opacity:1;fill-rule:evenodd;stroke:none"
     d="m 18.628247,18.626 0,7.7479 7.748027,0 0,-7.7479 -7.748027,0 z"
     id="path4896"
     inkscape:connector-curvature="0" />
  <path
     style="fill:#424242;fill-opacity:1;fill-rule:evenodd;stroke:none"
     d="m 9.3141486,18.6254 0,7.7479 7.7479544,0 0,-7.7479 -7.7479544,0 z"
     id="path4898"
     inkscape:connector-curvature="0" />
  <path
     style="fill:#424242;fill-opacity:1;fill-rule:evenodd;stroke:none"
     d="m -9.1621621e-7,18.6254 0,7.7479 7.74800431621621,0 0,-7.7479 -7.74800431621621,0 z"
     id="path4900"
     inkscape:connector-curvature="0" />
  <path
     style="fill:#424242;fill-opacity:1;fill-rule:evenodd;stroke:none"
     d="m -9.1621621e-7,27.9386 0,7.7481 7.74799821621621,0 0,-7.7481 -7.74799821621621,0 z"
     id="path4902"
     inkscape:connector-curvature="0" />
  <path
     style="fill:#424242;fill-opacity:1;fill-rule:evenodd;stroke:none"
     d="m 9.3141393,37.252 0,7.748 7.7479777,0 0,-7.748 -7.7479777,0 z"
     id="path4904"
     inkscape:connector-curvature="0" />
  <path
     style="fill:#424242;fill-opacity:1;fill-rule:evenodd;stroke:none"
     d="m 18.628286,27.9389 0,7.7481 7.748027,0 0,-7.7481 -7.748027,0 z"
     id="path4906"
     inkscape:connector-curvature="0" />
  <path
     style="fill:#424242;fill-opacity:1;fill-rule:evenodd;stroke:none"
     d="m 18.62826,37.252 0,7.748 7.748027,0 0,-7.748 -7.748027,0 z"
     id="path4908"
     inkscape:connector-curvature="0" />
</svg>
