<?xml version="1.0" encoding="UTF-8" standalone="no"?>
<!-- Created with Inkscape (http://www.inkscape.org/) -->

<svg
   xmlns:dc="http://purl.org/dc/elements/1.1/"
   xmlns:cc="http://creativecommons.org/ns#"
   xmlns:rdf="http://www.w3.org/1999/02/22-rdf-syntax-ns#"
   xmlns:svg="http://www.w3.org/2000/svg"
   xmlns="http://www.w3.org/2000/svg"
   xmlns:sodipodi="http://sodipodi.sourceforge.net/DTD/sodipodi-0.dtd"
   xmlns:inkscape="http://www.inkscape.org/namespaces/inkscape"
   width="27.580999"
   height="16"
   id="svg2"
   sodipodi:version="0.32"
   inkscape:version="0.91 r13725"
   version="1.0"
   sodipodi:docname="Latvia.svg"
   inkscape:output_extension="org.inkscape.output.svg.inkscape">
  <defs
     id="defs4" />
  <sodipodi:namedview
     id="base"
     pagecolor="#ffffff"
     bordercolor="#666666"
     borderopacity="1.0"
     gridtolerance="10000"
     guidetolerance="10"
     objecttolerance="10"
     inkscape:pageopacity="0.0"
     inkscape:pageshadow="2"
     inkscape:zoom="4.68"
     inkscape:cx="188.55148"
     inkscape:cy="-23.051282"
     inkscape:document-units="px"
     inkscape:current-layer="layer3"
     inkscape:window-width="2876"
     inkscape:window-height="1599"
     inkscape:window-x="-13"
     inkscape:window-y="-13"
     showgrid="false"
     inkscape:window-maximized="1"
     inkscape:showpageshadow="false" />
  <metadata
     id="metadata7">
    <rdf:RDF>
      <cc:Work
         rdf:about="">
        <dc:format>image/svg+xml</dc:format>
        <dc:type
           rdf:resource="http://purl.org/dc/dcmitype/StillImage" />
        <dc:title>Latvia blank contour map</dc:title>
        <dc:date>2007.06.04</dc:date>
        <dc:creator>
          <cc:Agent>
            <dc:title>Mothmolevna</dc:title>
          </cc:Agent>
        </dc:creator>
        <cc:license
           rdf:resource="http://creativecommons.org/licenses/by-sa/2.5/" />
      </cc:Work>
      <cc:License
         rdf:about="http://creativecommons.org/licenses/by-sa/2.5/">
        <cc:permits
           rdf:resource="http://web.resource.org/cc/Reproduction" />
        <cc:permits
           rdf:resource="http://web.resource.org/cc/Distribution" />
        <cc:requires
           rdf:resource="http://web.resource.org/cc/Notice" />
        <cc:requires
           rdf:resource="http://web.resource.org/cc/Attribution" />
        <cc:permits
           rdf:resource="http://web.resource.org/cc/DerivativeWorks" />
        <cc:requires
           rdf:resource="http://web.resource.org/cc/ShareAlike" />
      </cc:License>
    </rdf:RDF>
  </metadata>
  <g
     inkscape:groupmode="layer"
     id="layer3"
     style="display:inline"
     transform="translate(0,-1178)">
    <path
       style="fill:#81c784;fill-opacity:1;fill-rule:evenodd;stroke:#81c784;stroke-width:0.99999988;stroke-linecap:butt;stroke-linejoin:round;stroke-miterlimit:4;stroke-dasharray:none;stroke-opacity:1"
       d="m 6.7405164,1180.4833 -0.086,0.6358 c 0,0 0.048,0.1743 0.182,0.3928 0.134,0.2198 0.704,0.5694 0.704,0.5694 l 0.2627,0.4127 0.2789,0.1746 0.1355,0.1465 0.3154,0.1233 0.098,0.4606 0.058,0.5054 0.2056,0.4164 -0.032,0.3869 0.5152,0.3118 0.4261,0.077 0.2496996,0.3303 0.2935,0.091 0.4937,-4e-4 0.7929,-0.373 0.071,-0.2962 0.3115,-0.097 0.1005,-0.063 c 0.4174,-0.2697 0.7073,-0.6306 0.9679,-0.9993 l -0.1212,-1.4697 -0.024,-0.8393 c -0.091,-0.01 -0.068,-0.207 -0.095,-0.3111 -0.04,-0.1011 -0.1162,-0.2033 -0.1815,-0.3105 l -0.037,-0.6337 0.1268,-0.2634 0.3814,0.01 c 0.094,-0.1835 0.1998,-0.2997 0.3195,-0.3414 l 0.1888,-0.2018 c 0.1546,0.05 0.3294,0.046 0.5357,-0.046 l 0.1058,-0.2405 0.2944,0.123 0.1673,-0.1452 0.3359,-0.1018 0.2731,-0.2681 0.3557,-0.086 0.3046,0.5053 0.1491,-0.1572 -0.1,-0.3395 0.077,-0.072 0.1714,0.1685 c 0.071,0.094 0.1779,0.1375 0.3134,0.1513 l 0.135,0.253 0.3922,0.1467 0,0.1582 0.1435,0.1685 0.5169,-0.042 0.1671,0.3785 c 0.3563,0.01 0.8479,-0.01 0.8452,0.1374 0,0.082 -0.059,0.2845 -0.059,0.2845 l 0.5314,0.3431 0.4476,0.7741 0.5958,0.2311 0.2955,0.2998 0.1059,-0.095 0.1524,0.067 0.012,-0.1494 0.4156,-0.2497 0.1124,0.083 0.2684,-0.1447 0.043,-0.1547 0.1367,-0.1208 0.098,0.085 0.2474,-0.015 0.3151,0.3814 0.5646,0.085 0.4116,0.1166 0.099,-0.064 0.5916,-0.011 0.036,0.3042 -0.059,0.2431 0.493,0.2924 0.2597,0.316 0.4663,0.2105 -0.085,0.9628 -0.4865,0.2565 0.2766,0.2842 -0.1027,0.3791 0.076,0.112 -0.175,0.4949 -0.1384,0.106 -0.027,0.3313 c 0,0 0.3386,-0.2342 0.6142,-0.2076 0.1405,0.014 0.233,0.1015 0.3209,0.1734 0.085,0.069 0.1673,0.1222 0.1673,0.1222 l -0.1888,0.301 -0.015,0.2498 0.2181,0.03 0.249,0.2432 0.1088,0.6017 0.4131,0.2103 -0.08,0.3427 0.3049,0.3397 -0.012,0.5011 0.236,0.6539 c -0.1215,0.1364 -0.1506,0.2503 -0.1038,0.3621 l -0.1179,0.3042 -0.1651,-0.095 -0.2057,0.2364 -0.4954,0.2036 -0.087,0.2722 -0.367,0.2377 0,0.2166 -0.5222,0.4535 0,0.5611 -0.143,0.2994 -0.7678,-0.072 -0.1708,-0.082 -0.2197,0.1899 -0.5239,-0.3287 -0.5518,0.071 -0.3539,0.3687 -0.072,0.4502 c -0.1636,0.01 -0.2798,0.081 -0.4308,0.1473 l -0.3925,-0.096 -0.1506,0.179 c -0.1909,-0.014 -0.3904,-0.039 -0.5876,-0.1625 l -0.3763,-0.072 -0.3749,-0.3773 -0.2128,-0.5204 -0.3424,-0.1713 -0.246,-0.361 -0.5517,-0.2213 c -0.1437,-0.1701 -0.3069,-0.3537 -0.4899,-0.5233 l -0.2443,-0.1029 -0.075,-0.3508 -0.2864,0 -0.192,-0.152 c -0.1199,0.095 -0.2678,0.091 -0.4395,0.018 -0.1602,0.112 -0.4603,-0.03 -0.6844,-0.1085 l -0.2919,0.053 -0.321,-0.2017 c -0.077,-0.2064 -0.047,-0.4515 -0.3006,-0.4762 l -0.3061,-0.9926 -0.1685,0.02 0,0.1832 -0.1209,0 c -0.074,0.019 -0.1089,0.082 -0.1192,0.1366 l -0.2827,0 c -0.053,0.1111 -0.1524,0.158 -0.263,0.1894 l -0.031,0.1064 c -0.016,0.048 -0.052,0.071 -0.099,0.058 l -0.3053,0.3504 -0.2411,0.079 -0.5002,-0.2576 -0.6363,0.2968 -0.2672,-0.093 -0.2399,-0.311 -0.6901,-0.1305 -0.316,0.058 -0.015,-0.1149 -0.5342,-0.067 -0.1015996,0.1854 -0.5447,-0.1045 -0.4087,-0.1993 -0.4745,0.073 0.043,0.1136 -0.2837,0.2821 -0.2462,-0.1827 -0.1666,-0.4559 -0.2122,-0.092 -0.3561,0.263 -0.3133,0.018 -0.2176,0.1026 -0.2521,-0.2048 -0.39713,-0.1245 -0.91953,0.013 -0.31167,-0.1705 -0.41609,0.01 -0.40469,0.2408 -0.44081,0.1022 -0.10287,0.1048 -0.10713,0 -0.22039,0.1725 -0.46964,-0.065 -0.0385,0.1285 -0.5391,0.3703 -0.27763,9e-4 c -0.14702,0.1489 -0.33288,0.3112 -0.43874,0.4432 l -0.11899,0.4928 -0.59738002,-0.03 c -0.0253,-0.6703 -0.15972,-0.5264 -0.24284,-0.7566 -0.0209,-0.082 0.0689,-0.4276 0.0706,-0.5254 0.002,-0.1157 -0.0487,-0.5852 -0.0487,-0.5852 l 0.12725,-0.2536 0.005,-0.4884 0.12597,0.048 0.009,0.5477 0.13619,0.032 0.009,-0.6241 -0.22826,-0.4026 0.26756,-1.0048 0.01,-0.7097 c 0.0427,-0.027 0.13344002,-0.055 0.18292002,-0.096 0.031,-0.026 0.003,-0.059 0.0331,-0.076 0.0414,-0.025 0.0892,-0.013 0.12736,-0.038 0.1587,-0.1013 0.28813,-0.1923 0.35932,-0.252 0.13554,-0.043 0.0919,-0.1725 0.18626,-0.2483 l 0.21839,-0.1152 0.25222,-0.4471 -0.0262,-0.6466 0.0799,-0.1857 0.0219,-0.6665 0.20496,-0.1814 c 0.1284,-0.1536 0.074,-0.2953 0.22492,-0.4516 l 0.79159,-1.1694 0.26949,0 0.13045,-0.039 0.5531,-0.013 0.30338,-0.2332 0.1375,-0.01 0.11593,-0.126 0.15357,-0.01 c 0.0115,0 0.11873,-0.094 0.24983,-0.1464 0.14846,-0.059 0.30085,-0.07 0.3387,-0.086 0.15057,-0.067 0.34393,-0.2143 0.43363,-0.2503 l 0.4194,-0.078 z"
       id="path2228"
       sodipodi:nodetypes="cczcccccccccccccccccccccccccccccccccccccccccccccccscccccccccccccccccccccccccccccccccssccccccccccccccccccccccccccccccccccccccccccccccccccccccccccccccccccccccccccccccccccccccccccccccccccsccccccccccssscccccccccccccccccsscc"
       inkscape:connector-curvature="0" />
  </g>
</svg>
