<svg xmlns:dc="http://purl.org/dc/elements/1.1/" xmlns:cc="http://creativecommons.org/ns#" xmlns:rdf="http://www.w3.org/1999/02/22-rdf-syntax-ns#" xmlns:svg="http://www.w3.org/2000/svg" xmlns="http://www.w3.org/2000/svg" version="1.1" id="svg12487" viewBox="0 0 45.002 49" height="49" width="45.002">
  <defs id="defs12489"/>
  <metadata id="metadata12492">
    <rdf:RDF>
      <cc:Work rdf:about="">
        <dc:format>
          image/svg+xml
        </dc:format>
        <dc:type rdf:resource="http://purl.org/dc/dcmitype/StillImage"/>
      </cc:Work>
    </rdf:RDF>
  </metadata>
  <g transform="translate(0,-1003.3622)" id="layer1">
    <path id="path6924-2" d="m37.394 1032.799c0.763 1.52-1.776 0.719-0.373 0.264-0.716-0.849-0.673 1.079-1.192-0.214 1.176-1.025-0.295-0.251-0.424 0.597 0.284-0.226 1.653 1.05 1.698 0.817 0.143-0.503 1.058-1.127 0.292-1.464m-4.139 4.637c-1.32-0.801 0.765-1.146 0 0zm1.355-0.108c-1.04-0.017-1.166-1.683-2.217-0.294-0.392 0.316 1.401 0.823 1.101 1.569 1.597-0.59-1.442-1.485 0.877-0.927 0.155 0.048 0.73-0.594 0.239-0.348m0.843-2.041c-1.047-0.981 0.809-0.479 0 0zm1.22-0.582c-0.506 0.124-1.989-0.815-1.803-0.077 0.497 0.275 0.717 2.033 1.11 1.317-0.579-0.03-0.158-1.618 0.297-0.633 0.106 0.334 0.919-1.046 0.396-0.608m1.063-14.453c-0.269 0.48-0.968 2.032-1.006 0.581 0.211-1.221-0.649 1.646 0.82 0.714 0.169-1.55 0.832-0.848 0.744-0.261 0.583-0.156-0.059-1.285-0.557-1.034m-2.411 16.228c-0.887-0.093-1.092-1.894-1.624-0.762-0.068 0.074 1.42 1.022 1.364 1.301 0.084-0.124 0.847-0.837 0.261-0.537m-2.521-21.689c-0.915-0.276 0.654 1.595 1.034 0.955-0.96 0.349-0.903-1.576-0.078-0.768-0.188 0.715 0.951-0.461-0.158-0.397 0.53-1.235 1.435 1.131 0.886-0.286-0.756-1.118-0.712-0.366-1.477 0.296-0.069 0.067-0.138 0.134-0.207 0.201zm1.192 1.459c-0.39-0.044 0.367 0.924 0.538-0.151 1.05-1.035 0.345 0.628 0.308 1.265-0.025 0.867 1.218-0.968 1.699-0.531-0.301-1.51-1.149 1.198-1.208 0.03 0.295-0.628 0.167-2.601-0.327-1.251-0.339 0.208-0.635 0.494-1.01 0.638m2.122 3.365c-0.35 0 0.206 1.144 0.708 0.179 1.06-0.074 1.259-0.858 0.724-0.814-0.399 0.282-0.941 0.572-1.432 0.635m0-1.698c-0.081 1.695-0.56 0.021-0.743 0.11-0.315 1.473 1.706 1.054 1.249-0.373 0.54 0.081 0.511 1.476 0.528 0.135-0.199-0.501-1.041-0.493-1.034 0.128m-18.853 19.278c-0.087 0.428 0.917 1.555 0.198 0.177l-0.198-0.177m-0.238 3.716c0.579-1.221 0.762 0.566 0 0zm0.955 0.951c-0.283-0.45 0.166-2.085-0.506-1.748-0.067 0.64-1.89 1.405-0.757 1.518-0.352-0.939 1.505-0.423 0.518 0.181 0.166 0 1.191 0.502 0.745 0.05m9.757-4.614c-0.677 0.489-0.022 1.439 0 0.106l0-0.106zm-9.839 0.399c1.246 1.566-0.762-1.569 0 0m-0.954-0.158c-1.698 0.719 2.253 1.59 3.084 1.79 3.028 0.589 6.435 0.186 8.93-1.712-0.435-1.027-0.112 0.507-0.561-0.345 0.453 1.325-1.012-0.795-0.475 0.716 0.58-0.178-2.45 1.223-3.394 1.011-2.636 0.226-5.558 0.18-7.9-1.117 0.165-0.704 0.853 0.783 0.314-0.343m1.698 2.783c0.698 0.542-0.761 1.992-0.006 1.937 1.007 0.576 2.117-0.57 0.377-0.054-0.358-1.451 0.932 0.137 0.688-1.085-1.206 0.559-0.152-1.234 0.373-0.24 0.017-0.528-1.054-0.356-1.433-0.558zm13.709-0.983c-0.703-0.608-1.171-1.669-0.203-1.594-0.165-0.447-1.88 0.657-1.595 1.069 0.091-0.997 1.597 0.159 1.188 0.977 0.046 0.2 1.383-0.754 0.61-0.452zm-2.464 0.772c-0.521-1.345 0.926-0.133 0 0zm1.349-0.028c-0.513-0.079-1.517-1.628-1.589-0.796 0.332 0.492-0.202 2.105 0.429 1.612-0.488-0.25 0.53-1.54 0.553-0.419-0.023 0.276 1.275-0.577 0.608-0.397m-3.074-0.4c-1.311 0.202 0.044 0.747 0.08 1.647-0.024 0.791 1.099-0.042 0.112-0.757-0.815-1.175 1.091-0.669 0.125 0.147 1.053-0.117 0.642-1.58-0.317-1.036m-2.944 0.853c-0.5 0.482-1.812-0.214-1.763 0.581 0.697-0.905 1.224 0.998 0.622 1.514 1.489 0.116 0.467-0.46 0.548-1.483-0.139-0.849 1.254 0.251 0.593-0.612zm7.375-27.419c-0.336 0.838-1.773 0.927-0.597 1.533-0.116-0.378 1.085-1.402 1.18-1.488-0.334-0.254-0.707-0.752-0.583-0.044m-9.337 29.063c-1.045 1.458-1.302-1.28-0.344-0.188 0.365-1.012-1.255-0.087-0.398-1.14 1.556 0.518-0.08-0.411-0.847-0.08 0.76 0.409-0.332 2.08 0.371 1.89 0.454-0.078 1.526 0.314 1.218-0.481m19.517-8.301c-0.588-0.322 0.511-0.355 0 0zm0.051-0.346c-0.911 0.194 0.615 0.732 0 0m-31.979 16.152c0.088-0.074-0.092-0.065 0 0zm7.081 1.457c0.671-0.907 0.581 0.934 0 0m0.343 0.424c1.388-1.107-1.645-0.658 0 0zm-4.455-24.209c-0.799-0.393-1.564 4.389-0.696 1.341 0.128-0.487 0.297-1.001 0.696-1.341zm13.843-0.834-0.029-0.095 0.029 0.095zm-5.463-12.583c2.076-0.273 0.411 3.043-0.51 1.113-0.315-0.303 0.465-0.552 0.51-1.113m1.353 0.874c-0.333-1.54 1.789-0.898 0.775 0.131 0.28 1.074-1.816 0.591-0.775-0.131zm1.22-0.291c1.786 0.264-1.073 2.796-0.213 0.372l0.076-0.216 0.137-0.156m0.903 0.771c0.322 0.649 1.841-0.184 1.165 0.793 1.723 0.72-1.48 1.566-0.712 0.115-0.402-0.604-1.674-0.043-0.453-0.908m0-0.479c0.86-0.525 0.436 1.069 0 0m2.228 2.358c1.472-0.897 1.022 0.469 0.617 0.74 0.068 1.829-2.835-0.021-0.617-0.74m0.765-0.818c-0.291 0.788-1.716 0.468-0.226-0.173l0.128 0.056 0.098 0.118m0.398 2.278c-0.028 0.499-2.034 0.437-0.317-0.157 0.095 0.015 0.311 0 0.317 0.157m0.079-0.69c0.741 0.116-0.405 0.823 0 0m0.294 2.573c-0.225 1.751-0.814-2.292 0 0zm-0.055-1.669c0.862-1.18 2.674 0.533 0.559 0.343-0.218 0.726-0.739 0.196-0.559-0.343m1.672 1.087c-0.629 1.131-2.208 0.381-0.984-0.45 0.054-0.492 1.34-0.049 0.984 0.451m0.239 0.451c-0.107 0.71-1.097-0.096 0 0m0.475 2.838c0.239 0.483-0.986 0.576-0.821 1.14-1.227-0.046 0.31-2.003 0.821-1.14m-0.049-2.759c1.101 0.123-1.046 0.96 0-0.001m-0.106 1.673c0.782 0.546-0.868 0.969 0 0m0.713-1.038c-0.285 1.141 0.803 0.831 0.32 2.203-0.264 0.887-1.14-0.706-0.638-1.157-0.903-0.143-0.377-1.579 0.317-1.046m0.742 5.358c-0.74 0.778-3.835 0.356-1.272-0.399 0.388-0.353 1.089 0.027 1.272 0.4m0-2.307c0.372-1.526 0.687 2.517-0.006 1.329 0.368-0.438-0.313-0.879 0.006-1.329m0.503-0.793c1.582-1.19 1.652 3.425 0.536 0.858-0.343-0.042-0.684-0.541-0.536-0.858zm1.355 3.392c0.851 1.803-0.801 0.337-0.545-0.847 0.413-0.461-0.044 0.76 0.545 0.847m-1.009-2.015c-0.491 0.482-0.076-1.029 0.099-0.156l-0.099 0.156m0.239 0.476c-0.401-0.144 0.242-0.442 0-0.001m0.556 3.846c-0.242-1.091-1.513-1.142-1.022-2.448-1.016-0.992 1.146-1.922 0.229-0.164-0.291 1.281 2.268 1.668 0.793 2.612m-0.423 1.06c-1.057-0.308 0.795-1.454 0 0m-0.77-0.639c-0.692-0.171-0.231-2.638 0.177-0.75 0.187 0.219 0.085 0.627-0.177 0.75zm0.108 0.534c-0.234 0.89-0.21-0.637 0 0zm-0.691 0.316c-0.584 1.209-2.428-0.057-0.559-0.453 0.357-0.29 0.758 0.069 0.559 0.453m-1.883-2.863c-0.673-0.655 1.232-0.317 0 0m0.953-0.346c1.291-0.821 2.131-0.026 0.523 0.622-0.1-0.127-1.036-0.472-0.523-0.622m-0.079 0.587c0.969 0.072 1.139 2.193 0.212 1.591 0.307-0.08-1.396-2.43-0.212-1.59zm-0.902 2.437c-0.851-0.306-1.48-2.364-0.931-2.88 0.957 0.315 1.627 0.979 1.624 2.111 0.459 0.513 0.117 0.793-0.693 0.769zm0.161 0.796c-0.454-0.605 0.548-0.432 0 0zm-0.133 0.529c-1.208 0.836 0.233-1.09 0 0zm-0.849-0.475c-0.084-2.053 1.379 0.49 0 0m-0.135-0.767c0.059 0.649-1.076 2.235-1.426 0.734 0.535 0.159 1.339-1.501 1.426-0.734m-1.67 0.821c-1.367 0.563-0.847-2.95-0.53-0.786-0.144 0.504 0.72 0.347 0.531 0.786m-1.136-1.963c-0.329-0.958-0.977-3.031 0.896-2.721 0.571 0.691 0.385 2.167-0.554 2.297 0.302-0.867 0.033-3.212 0.025-0.996-0.069 0.48-0.086 1.005-0.367 1.42m-0.453 0.078c-0.604 0.718-2.225 1.911-0.816 0.421 0.231-0.047 1.092-1.356 0.816-0.421zm-7.026-2.808c1.238 0.226 2.104 3.699 0.689 1.376-0.248-0.185-1.326-1.25-0.689-1.376m-1.246 0.131c1.008 0.817-0.285 0.704 0 0m8.404 3.741c-0.362-0.393-0.336-0.052-0.529 0.105-0.096 0.524-0.473-0.692-0.267 0.69-0.77-1.073 0.196 1.834-0.583-0.08 0.092 1.144 0.448 1.45-0.318 0.423 0.769 1.698 0.17 0.494-0.211 0.293 0.561 1.096 0.442 0.97-0.095 0.413 0.634 1.048 0.296 0.699-0.169 0.433 0.486 0.793 0.105 0.453 0.742 1.619-1.405-1.469 0.204 0.401-0.052 0.504-1.652-1.764 1.157 1.564-0.478 0.056 0.928 1.034 0.363 0.786 0.226 0.786-0.147 0.575 1.024 1.265 0.782 1.52 0.118 0.35 0.635 0.733 0.425 1.06-2.71-0.213-2.489-2.969-2.65-4.957-0.552 0.185 0.157 1.572-0.452 1.085 0.444 0.876 0.432 1.354-0.028 0.792 0.487 0.713 0.591 2.492 0.081 0.719 0.546 1.616-0.606-0.19-0.037 1.247-0.013 2.519-2.975-0.278-1.643-1.744 0.322-2.077 0.336-4.349-1.317-5.84-0.233-0.915-3.136-2.193-2.226-2.652 1.411 1.642 0.673-0.432 0.186-1.166 1.292-0.149 0.584 1.846 1.407 1.92-0.619 0.2 0.893 0.641 0.184 0.76 1.05 0.303-0.103 0.309 1.085 0.715-0.827 0.21 1.388 0.606 1.088 1.91 0.531-0.554-0.676-3.395-1.642-4.317-0.64-0.517-2.168-1.247-0.315-0.805-0.654-1.028 0.06-2.688 0.309-0.583 0.09 0.842 0.195 0.996 0.775 1.49-0.389-0.055 0.88 0.573 0.238 0.502 0.475 0.186 0.117 0.559 0.953 0.929 0.016-1.629-1.287-3.233-0.767-4.811 0.573 0.81 1.047 4.081 1.544 3.772 0.578-0.939-0.213-3.952 0.365-3.706 0.235 0.647-0.058 0.918 0.215 1.36 0.405 0.841-0.713-0.296 0.185 0.92-0.445 0.117 0.045 0.53-0.085 0.848 0.486 0.88-0.718-0.55 0.11 0.955-0.843-1.641 0.18 1.421-0.506-0.136 0.21 0.663-0.235 1.365 0.108 2.254 0.003-1.029 1.819-4.559 2.016-3.816-0.231 0.833-1.788 3.479 0.053 1.562 1.936-1.824-0.849 1.005-0.922 1.891-1.175 2.229 2.611-2.289 1.825-0.668-0.101 0.636-0.313-0.181-0.559 0.716-0.465-0.524-0.13 0.843-0.53 0.186-0.12 1.107-0.334-0.698-0.415 0.823-0.896 2.667 2.874-2.913 1.899 0.027m-2.281 7.954c-0.231-0.303 0.378-0.844 0 0zm-0.158-0.374c-0.617 0.957-0.255-2.246 0 0m-5.358-9.251c0.985 0.456 1.376 1.801 0.214 0.371l-0.127-0.185-0.087-0.186zm1.856 6.469c0.692 0.983 0.245 0.71-0.104 0.424 0.756 1.149-0.032 0.547-0.079 0.506 0.628 1.599 0.086 0.587-0.267 0.05 1.467 1.546-3.19 2.39-1.166 0.404 1.247-1.552 1.032-4.076 0.104-5.733-1.292 0.084-3.007-2.112-0.928-1.087 0.266-0.694-1.445-2.92-0.37-1.936 0.199 0.466 0.197 0.438 0.523 0.69 0.02 0.63 0.256 0.6 0.324 1.034 0.261 0.019 0.38 0.648 0.849 0.613 0.956-0.035 2.383 2.172 0.742 0.688 0.759 0.638 0.154 0.795 0.903 1.723-1.265-0.964 0.809 1.31-0.504 0.237 0.656 0.692 0.614 1.173 0.055 0.454 0.505 0.854 0.54 1.071-0.109 0.503 0.629 0.954 0.531 0.813-0.056 0.373 0.651 0.7 0.715 1.557 0 0.423 0.674 0.93 0.625 1.176 0.081 0.635m-3.818-2.972c0.392-0.626 1.241-1.662 0.592-0.234l-0.286 0.164-0.306 0.071m-1.007 0.029c-0.824-0.076-0.146-1.504-0.263-2.016 0.321-2.412 0.725 1.408 0.778 1.399 0.536-1.997 1.036 1.027-0.515 0.617m-1.14 0.16c0.12-0.831-0.905-2.29 0.663-2.733-0.311 0.873 0.346 2.632-0.663 2.734m-0.344-0.293c-1.386 1.425-0.926-2.559-0.16-0.451 0.631-0.129 0.23 0.295 0.16 0.451m-1.484-0.398c-0.784-1.021 0.573-1.152 0.502-0.107l-0.251 0.114-0.25-0.01m-0.504 0.743c-1.587-1.329 0.795-1.43 0.292-0.13l-0.292 0.13m-0.956-1.194c-1.32-2.393 1.713 0.219 0 0.001m0 0.424c-1.013 0.411-0.874-2.121-0.251-0.365-0.167 0.105 0.452 0.21 0.251 0.365m-0.877-1.616c1.433-0.963 0.151 1.199 0 0m-0.29-0.374c-0.801-0.673-0.343-2.249 0.319-0.742l-0.13 0.392-0.189 0.349m-0.795-2.915c-0.771-1.517 1.586 0.506 0.399 0.98-0.413-0.163-0.483-0.6-0.399-0.98m0.134-2.279c1.102-0.091-0.226 1.059 0 0zm0.529-1.195c-0.498-0.765 2.027-1.906 0.719-0.511-0.022 1.088 0.735-2.058 1.206-0.07-0.428 0.572-2.692 2.976-1.925 0.582m0.264-1.829c1.078-0.627-0.857 1.254 0 0m0.717-0.636c0.623-1.722 2.2 0.842 0.518 1.02-1.877 0.423-0.721-0.158-0.518-1.02m1.432-1.328c1.914 0.89-2.222 1.071 0 0m0.769 1.434c-1.787-0.143 0.61-1.678 0 0zm0-1.326c1.935-2.14 1.154 2.4 0.055 0.315l-0.054-0.316m1.697 0.026c1.227 0.492 0.662 3.445-0.914 1.714 0.017-0.604 0.506-1.234 0.914-1.714m0.028-0.53c-0.262-0.991 1.303-2.71 0.955-0.768-0.496 1.322-0.168 1.098 0.186 0.024 0.7-0.139-0.244 2.707-1.141 0.745m1.007-1.857c0.782-0.824 1.805-1.608 2.801-2.124-0.078 0.876-1.887 2.013-2.86 2.166l0.06-0.042m3.581-1.776c0.795 0.516-1.392 1.404-0.293 2.361 0.468 0.803 0.253 1.83-0.292 0.188-0.937-0.53-0.969-0.934-0.29-0.93-0.617-0.713 0.053-1.58 0.875-1.618m0.08-0.634c0.835-1.23 1.932 1.325 0.477 1.112 0.289-0.638-0.611-0.771-0.477-1.113m2.57 1.748c-1.868 1.355 0.489-1.794 0.264-0.134l-0.264 0.134zm0.426 0.319c-0.93 1.695-0.506-1.175 0 0zm3.1 0.983c-1.805 0.342 1.592-1.214 0.771 0.077l-0.364-0.018-0.407-0.059m1.248 1.723c-1.48 0.908-1.389-2.033-0.054-0.558 0.02 0.157 0.204 0.397 0.054 0.558m1.987 7.452c-1.271 0.072-0.404-1.145 0 0.001m-0.82-3.979c0.462 0.253-0.623 0.362 0 0m-2.041 4.587c-0.249 0.796-2.184 2.157-0.803 0.501 0.059-0.192 1.322-1.322 0.803-0.501m0.081-1.113c-0.397-1.534 1.186 0.29 0-0.001m-0.026-0.982c0.84 0.019-0.795 0.769 0 0.001m-0.532-0.212c0.388-1.742 0.729 1.122 0 0m-0.133 1.035c0.711-0.411-0.835 1.68-0.212 0.431l0.212-0.431zm-0.185-3.978c0.849 0.026 0.843 1.116 0.352 1.698 0.358 1.034-1.008 1.408-0.347 0.027 0.054-0.573 0.042-1.151-0.004-1.725zm-0.637 2.6c0.032-0.952-0.311-1.795 0.271-2.655 0.566-0.043 0.391 3.182-0.271 2.655zm-0.61 0.449c1.659-0.152-0.732 2.458-0.135 0.107l0.019-0.093 0.116-0.013m-0.239-1.725c0.921 1.252-0.511 0.596 0 0m0.637-4.611c1.728 0.587-1.612 1.188 0 0m0.981-0.293c-0.796 0.537-1.66-0.527-0.006-0.681 1.231-0.061 0.935 0.402 0.006 0.682m-0.319 1.086c0.735-1.657 0.096 1.699-0.558 0.189-0.005-0.01 0.686 0.105 0.558-0.189m-0.821 0.825c-0.717 0.34 0.017-0.582 0 0zm0.026 1.432c-0.29-1.767 1.597-1.6 1.498-0.17-0.443-0.02-1.146 0.463-1.498 0.17m-0.371 0.954c0.011 0.727-0.449-0.312 0 0m-0.053-0.318c-0.62-1.056 1.188 0.077 0 0m2.333 1.593c-0.929-0.166 0.529-0.92 0 0.001m0.451-3.498c0.825 0.73-0.439 3.449-0.271 0.992-0.109-1.481-0.775-2.224-0.154-0.279 0.433 1.553-0.691 1.227-0.139 0.088-1.203-0.675-0.214-2.732 0.649-1.102 0.112 0.072-0.217 0.227-0.085 0.301m-4.669 3.391c1.073-0.351 0.472 2.084 0 0.001m-0.423-7.002c1.078 0.033-0.591 2.198 0 0m-0.052 1.645c0.614-0.205-0.192 0.865 0 0m-0.901 4.082c-0.411-1.143-0.569-1.968 0.079-2.941 0.216 1.135 0.437 4.232 0.331 1.379-0.374-0.934 0.059-2.017 0.674-0.715-0.773 0.662 0.929 0.823 0.189 1.567 0.718 0.748-0.89 0.796-1.273 0.71zm0.395 2.71c0.986 0.637 0.109 1.843-0.161 0.239l0.161-0.239m-0.607-0.612c1.171-0.455-0.19 1.557 0 0m-0.239-1.005c-0.457-0.737 0.972-1.333 0 0zm0.159 0.184c0.473-1.586 0.832-0.217 0.155 0.322-0.205 0.091-0.332-0.226-0.155-0.321m-0.556-6.444c-1.887-1.016 1.501-2.649 0.981-0.558 0.646 0.329 0.317 3.28-0.116 1.319-0.297-1.26-1.576-3.151-0.414-0.838 1.138 1.397-0.581 1.536-0.611 0.396 0.023-0.031 0.357-0.224 0.159-0.319m0.053 2.122c-0.94-1.964 2.094-0.075 0 0m-0.558 3.237c1.172-1.355 0.951 0.459 0 0zm-0.688-2.786c-0.42 1.057 0.873 3.789-0.901 2.071-0.123-0.827-0.254-3.015 1.325-2.098 0.785 0.489 0.869 2.823-0.114 2.347-0.287-0.738-0.285-1.542-0.309-2.321m-0.506 4.828c0.507-0.907 1.252-1.88 0.673-0.207 0.05 0.288-0.741 0.444-0.673 0.208m-0.051-0.426c1.051-1.822-0.162 1.042 0 0zm-0.184-0.981c0.962-0.17-0.545 1.806 0 0m0.874-0.397c0.867 0.289-1.037 0.685 0 0m-1.407-0.505c-0.851-0.669 0.568-2.027 0.073-0.418 0.588 0.44 1.65 1.15 0.274 0.737l-0.347-0.319m-0.077 2.495c-0.041-1.116 0.906 1.597 0 0zm0.053 3.471c-0.264-2.314 1.599 2.204 0 0zm-3.449 0.558c0.488-2.61 0.146 1.924-0.244 0.574l0.125-0.261 0.119-0.313m-2.092-0.345c-0.289-0.954 1.23-2.201 2.062-2.181-0.457 1.143-0.135 2.328-0.818 3.507-0.781 0.928-2.146-0.992-1.244-1.326m-1.434-3.102c-1.141 1.411-0.653-2.117 0-0.691-0.157 0.237 0.015 0.455 0 0.691m0.982-0.793c1.073-0.276-0.067 2.097-0.14 0.36l0.14-0.36m5.834 1.004c-0.415 1.225-1.285-0.849 0 0m-0.981-5.941c0.981 1.407-1.347 0.781 0 0zm0.397 2.07c0.436 0.625-1.814 1.819-0.82 0.558 0.766-0.275 1.178-2.101 0.82-0.611l0 0.053m1.326-5.939c1.021-0.054-0.973 1.347 0 0m-0.661 0.896c0.642 0.072 1.266 0.848 1.328 1.593 1.174 0.873-1.394 1.5-1.352 0.09-1.066-0.146 0.468-0.981-0.693-1.15 0.664-1.61 1.415 2.539 1.735 1.573-0.535-0.568-1.003-1.302-1.017-2.106m-0.742 1.65c0.551 0.695 1.949 1.2 0.722 2.135-0.776 1.128-0.438-1.096-1.093-1.263 0.259-0.258 0.339-0.558 0.371-0.871zm-1.114 3.207c1.488-2.352 0.302 2.234 0 0m-3.079 1.328c0.239 1.022 1.359 0.468 1.751 1.752 1.42 1.173 1.905-3.509 3.555-1.541-0.045 1.399-1.166 1.634-2.189 2.394-0.709-0.494-2.069-0.488-0.94 0.057-0.141 0.449 1.072-0.101 0.531 1.077-0.42-1.295-2.12-0.211-1.912-1.462-1.209 0.712-3.011-2.747-0.796-2.276m0.93-1.168c-0.349 0.75 0.062 2.139-0.882 0.744-0.949-0.737 0.51-3.03 1.081-1.01l-0.199 0.266m1.644 0.767c0.534 0.679-0.581 3.099-0.704 0.783-0.565-1.149 0.208-2.953 0.759-1.143-0.052 0.107-0.393 0.284-0.056 0.36m-1.324-2.197c0.561 0.276-0.298 1.123 0 0m0 1.404c0.526-1.264 0.527 2.518 0.663 2.785-0.688-0.761-1.109-1.828-0.663-2.784zm-2.969 3.895c0.603 0.762 2.028-0.545 2.544 0.772-0.968 0.349-2.503 1.694-2.867 0.158 1.056-0.324 2.858-0.377 0.697-0.287-1.027 0.429-0.702 0.064-0.374-0.641m0.316-0.687c-0.18 1.024-0.517-0.557 0 0m-0.105-0.399c-1.033-1.808 1.135-0.698 0 0.001m0.291 4.429c-0.905 0.118 0.043-0.59 0 0m-0.21-0.478c-0.907-0.769-0.625-1.505 0.449-0.822 0.637-0.659 0.003 1.369-0.449 0.822m3.818 0.053c-0.832-0.292-0.675-2.822 0.211-1.639-0.811 0.894 1.374 1.593-0.211 1.639zm-0.295 0.238c1.099-0.026-0.78 1.253 0-0.001m2.098 1.301c-0.748-1.316 0.679-2.021 0.322-0.301l-0.322 0.301zm0.796 0.026c0.105 0.551-0.603-0.308 0 0m-0.558-2.971c0.773 0.649-0.936 2.218-1.273 0.797-0.762-0.082-0.129-1.899 0.003-2.186 0.67 0.089 2.793 0.316 1.271 1.389m6.017-1.538c-0.662 0.01-0.676-1.711 0.001-0.443l-0.001 0.443m0.373-3.551c-0.144 0.916-0.439-0.602 0 0zm0.267 0.423c-0.359-0.277 0.331-0.935 0 0m-0.108-0.85c-1.188 0.366-0.776-2.283-1.213-2.753 1.055 0.436 1.388 2.632 1.055 0.472 0.343-1.474 1.475 0.788 0.344 0.771 1.458 0.211 0.431 1.776-0.186 1.51zm0.691 2.497c1.431 0.331-0.441 1.047 0 0m2.545 0.422c-0.38-0.498 0.508-1.081 0.218-1.753 1.435-0.417 2.325 1.349 1.425 2.442 0.962-0.211-0.099 1.159-0.873 0.342-1.291 0.171 0.523-1.041-0.771-1.032m2.837 4.188c0.904 0.759-1.938 2.35-1.577 0.299-0.81-0.579 1.321-1.031 0.55-1.992 0.69-0.77 0.915 1.063 1.056 1.378-0.15 0.019-0.215 0.296-0.029 0.316m0.292-2.092c-0.719 0.081 0.033-0.778 0 0.001m0.663-2.017c-0.985 0.296 0.141 1.299-0.794 1.516-0.492-0.922-0.04-3.205 0.83-1.781l-0.089 0.133 0.053 0.132m0.213-0.053c0.087-0.639 0.894-0.255 0.476-1.114 1.442-0.237 0.777 1.045 1.122 1.61-1.521 0.872-1.542 0.909-0.775-0.601 0.744-2.167-1.346 3.148-1.116 0.557 0.23 0.029 0.456-0.263 0.292-0.453m-1.567-3.206c-0.043-1.669 2.593-0.66 1.447 0.557 0.583 0.652-1.472 2.4-1.853 1.276 0.352-0.81-0.422-1.265 0.406-1.833m-1.643 0.105c-0.532-0.595 1.193-2.416 1.166-0.77-0.47 0.473 0.043 2.455-1.484 1.566 0.089-0.199 0.526-0.505 0.319-0.795m-0.161-1.83c0.099-1.288 0.533 0.579 0.883-0.867 2.097-0.595-1.482 2.666-0.883 0.868m-3.842-3.949c1.014-1.051 0.557 1.32 0 0m-0.214 1.139c0.013-1.325 1.664 0.113 0.197 0.805-1.347 2.173 0.886-1.214 1.502-1.779 1.554 0.13-0.567 0.453 0.145 1.458-0.816 0-0.597 1.447-1.525 1.135-0.671 2.108-2.242-1.786-0.585-0.53-1.134-1.344 0.673-0.173 0.266-1.088m-1.722-1.725c0.714 1.483-1.3 0.654-0.344-0.111l0.344 0.111zm0.16-1.642c-0.368 1.305-2.399-0.516-2.06 1.153-1.165-0.862-1.746 0.932-3.034 1.075-0.486 0.978-2 1.096-1.579 2.647-1.419-0.038-3.276 0.433-4.041 1.834-1.142 0.825-0.822 1.927-1.192 3.127-0.407 1.257-0.998 3.028-0.049 4.364 0.196 1.434 0.577 3.615 2.249 3.991 1.342 0.62 3.149 0.046 4.788 0.286 1.402 0.117 1.21-2.854 2.299-0.964 1.213 1.546 0.573 5.533-1.025 5.785-0.076 0.398 0.952 1.94 0.91 0.807 0.956 1.569 0.051-1.444 0.797 0.611-0.225-1.324 0.217-0.433 0.661-0.108-0.666-1.636-0.082-0.343 0.405 0.088-0.786-1.698-0.159-1.016 0.414-0.096-0.703-1.44-0.241-1.305 0.269-0.017 0.457 0.418-0.696-2.075 0.399-0.372 0.189 0.865 0.658 0.153 1.192 0.505-0.413-1.201 0.776 0.918 0.154-0.745 0.506 0.688 0.9 1.21 0.291-0.095 0.063-1.106 0.776 2.121 1.226 0.335-0.084 0.894 0.224-0.397 0.344 0.425 0.445-0.819 1.133 0.605 1.98-0.703-0.227-0.089-1.896-2.257-1.449-3.912-0.368-1.871 1.014-4.459 2.588-2.381 1.25 0.482 2.471 0.118 3.433-0.455 2.143-0.064 4.192-1.991 3.34-4.084-1.152-0.992 0.356-2.236-0.21-3.579-1.174-0.953-2.463 0.611-2.047-1.458-0.55-0.632-0.657-1.733-1.534-2.358-0.013-0.899-0.712-1.86-1.823-1.19-0.718-0.896 0.024-2.071-1.468-2.48-1.119 0.835-0.773-0.942-1.746-1.054-0.652-0.576-1.633-0.767-2.451-1.292-1.072 1.808-0.549-0.892-2.032 0.313m8.989 15.353c-0.419-1.249-0.741-1.449-0.133 0.03 0.489 1.047 0.941 0.668 0.133-0.03m-0.213-17.634c0.215 0.478-0.712 2.35 0.164 1.756 0.559-0.488 2.138-1.077 0.843-1.174-0.484 1.924-1.112 0.026-0.404-0.39-0.135-0.059-0.915-0.699-0.603-0.193m11.165 20.789c0.38-0.42 0.194 0.549 0 0zm0.237 0.237c0.518-0.823-0.988-0.052 0 0zm-2.147-6.63c0.151 8.047-6.035 15.585-13.934 17.068-7.607 1.702-15.956-2.466-19.233-9.524-3.527-6.98-1.475-16.136 4.637-20.995 5.937-5.095 15.342-5.323 21.518-0.519 4.357 3.226 7.053 8.539 7.013 13.969zm-35.294 0c-0.149 8.232 6.188 15.932 14.262 17.459 7.78 1.741 16.319-2.525 19.666-9.745 3.528-7.005 1.596-16.165-4.412-21.192-5.943-5.356-15.553-5.826-21.983-1.062-4.654 3.275-7.577 8.837-7.534 14.54zM26.067 1011.293c0.003-0.364-1.63 0.359-0.882-0.994 0.42-0.746 0.347-0.943-0.494-0.807 0.813 0.582-0.914 1.98 0.178 1.85 0.362-0.055 1.129 0.516 1.198-0.049zm18.592 14.242c-0.184 1.574-0.33 5.175-1.394 5.174 1.588-1.656-0.916-4.368 1.394-5.174zm-0.398 5.408c-0.242 2.414-2.943 0.514 0 0zm-0.346 1.831c-0.534-0.226-2.691-1.225-3.606-1.513 1.245 0.31 2.667 0.58 3.606 1.513m-0.37 1.085c-0.325-1.567 0.551-1.07 0 0zm-0.292 0.611c-0.098-0.824 0.149-2.604 0.182-0.676l0.004 0.357-0.186 0.319m-0.319 0.609c-0.623-1.289-2.877-1.387-3.341-2.174 0.968 0.451 3.636 0.87 3.341 2.174zm-2.575 2.253c0.172-1.022 2.844-4.032 1.753-1.71-0.514 0.636-1.079 1.24-1.753 1.71zm-2.543 3.742c-2.222 0.109 2.252-1.288 2.18-2.849 0.666-1.177 2.423-1.74 0.996-0.088-0.804 1.205-1.84 2.325-3.176 2.937zm0 1.006c-0.608-0.513-3.176-1.659-3.445-1.909 1.276 0.262 2.594 0.897 3.445 1.91zm-1.061 0.821c-0.834-0.79-0.559 1.318-1.088-0.157 0.7-0.219 2.702-0.904 1.088 0.158m-0.477 0.318c-0.455-0.646 1.02-0.293 0 0m-0.687 0.344c-0.077-1.37-4.636-2.298-2.071-1.88 0.72 0.249 2.669 1.148 2.071 1.881zm-1.54 0.665c-1.231 0.791-3.768 2.203-4.747 1.511 2.12-0.257 4.277-1.726 5.526-2.824 1.228 0.847-0.309 0.65-0.778 1.313zm-2.837 2.652c0.795-0.89 2.333-0.55 0.379-0.123l-0.379 0.123zm0.185 0.263c-0.153-0.502 2.783-0.849 0.795-0.263l-0.398 0.137-0.397 0.127zm0.822 0.397c0.22-0.868 0.686 0.536 0 0.001m0.267-0.368c-0.69 0.693-1.224-0.028 0.121-0.274 0.978-0.144-0.1 2.419 0.016 0.786 0.184-0.154 0.065-0.451-0.137-0.512zm0.901-0.187c0.144 0.998-0.253 2.462-0.217 0.644 0.15-0.037-0.251-1.373 0.217-0.644zm1.084 0.264c-0.39 0.993-1.841-2.577-3.048-0.769-1.142 0.834 3.115 2.946 1.751 2.786-0.503-1.122-4.129-2.251-1.486-3.282 1.176-0.921 1.816 0.806 2.783 1.265m-0.556 1.142c-0.348-1.683 0.68-0.742 0 0zm-0.157 0.292c-0.537 1.189-0.039-3.006 0-0.716 0 0.239 0 0.478 0 0.717zm-1.142 0.797c-0.313-1.619 0.945 0.393 0 0zm-0.398 0c-0.097-1.961 0.739-0.285 0 0zm-0.371 0.024c-0.113-1.968 0.823-0.729 0 0zm1.164 0.291c-2.043-0.171-3.592 1.23-5.407 1.831-2.237 0.185-3.468-2.171-4.733-3.633-0.605-1.098-2.084-2.648-2.03-3.555 1.681 2.456 3.047 5.533 5.829 6.916 2.093 0.357 3.551-1.933 5.673-1.704 0.176 0.111 0.812-0.311 0.667 0.146zm-12.54 0.903c-1.404 2.157-4.046 1.351-5.906 0.369-0.847-0.123-3.648-0.315-1.28-0.449 2.181-0.17 4.433 2.47 6.39 0.502 1.002-0.783 2.076-2.634 3.237-2.49-0.958 0.497-1.751 1.248-2.44 2.068zm-6.869-3.368c0.988 0.443-0.236 1.601 0 0zm-0.371-0.345c0.616 0.818 0.017 2.019 0.029 0.33l-0.029-0.33zm-1.378 3.686c-1.138-1.971 4.401-2.348 1.342-3.854-1.417-0.05-2.64 1.792-3.093 2.238 0.61-2 3.215-3.201 4.802-1.488-0.421 1.366-3.22 1.18-3.051 3.104m-0.399-1.19c0.063-0.627 0.601 0.373 0 0m1.008-0.667c-0.737 0.515-2.779-0.686-0.835-0.184l0.425 0.098 0.41 0.087zm0.424-1.801c0.604-0.04 0.165 2.699 0.056 0.763l-0.04-0.423-0.017-0.341zm0.053 1.564c-0.88 0.386-3.216-0.813-0.967-0.235l0.494 0.124 0.474 0.111zm-0.901-1.114c1.062 0.327-0.684 0.715 0 0m0.239-0.133c0.723-0.666 0.802 1.882-0.304 0.825-3.083-1.075 1.602 0.525 0.304-0.825zm-0.796 2.81c-1.458-1.178-0.118-1.685 0.399-0.875-0.992-0.464-0.152 0.617-0.399 0.875zm-0.955-0.797c0.047-0.963 1.067 1.559 0 0m0.664-4.267c1.028-1.419 2.581 1.573 4.242 1.49 0.186 0.797-3.81-0.867-4.242-1.49zm-0.504 0.105c-0.52-1.007 3.56-3.2 2.934-2.388-1.11 0.592-2.289 1.262-2.934 2.388zm-0.371-0.504c-0.713-0.111 0.481-0.5 0 0m-1.272-0.849c1.074 0.299 2.25 0.557 0.981 0.692 0.991 1.007-0.623-0.126-0.981-0.691zm-0.292 0.293c0.546-0.335 1.248 1.15 0 0zm-0.345-0.161c0.733-1.053 2.898-2.942 3.394-2.524-1.409 0.385-2.382 2.01-3.394 2.524zm-1.033-1.273c1.094-0.617 2.48 0.648 0.939 0.565-0.325-0.167-0.655-0.333-0.939-0.565zm-0.98-1.192c-0.904-1.046-2.624-3.425-2.658-3.941 2.148 0.571 2.3 3.519 4.414 4.334 2.23 1.025-0.919 0.659-1.513-0.162l-0.242-0.23m-3.688-5.887c0.592-0.722 2.397 2.226 2 2.019-0.918-0.31-1.619-1.142-2.001-2.019m-0.476 0.08c-0.436-1.68 5.899-1.872 2.154-1.115-0.785 0.217-1.533 0.585-2.154 1.115zm-0.398-0.82c0.406-0.321 0.161 0.817 0 0m-0.266-0.745c1.374 0.856 0.143 1.021 0 0zm-0.025-0.557c0.848 0.598 1.553 1.907 0.224 0.514 0.111-0.098-0.786-0.485-0.224-0.513m-0.08-0.501c1.036-0.955 5.453-0.53 2.062-0.415-0.374-0.151-3.234 1.548-2.062 0.415zm-0.369-1.197c0.885 0.47 1.445 0.727 0.209 1.063-0.084-0.35-0.257-0.694-0.209-1.063zm-0.319-5.351c1.064 1.524 0.02 4.106 1.271 5.592-1.903-0.988-1.802-3.82-1.271-5.592m-0.239-4.936c1.434 0.945 0.163 4.209 0.387 4.76-1.371 0.392-0.347-3.493-0.387-4.76zm0.558-1.087c0.359-1.34 0.906-4.046 1.739-4.421 1.055 1.811-1.957 3.5-1.022 5.713-0.477 1.262-0.82-1.052-0.718-1.292zm2.225-5.514c0.6-1.019 2.065-3.77 2.744-3.418 0.459 1.869-2.643 2.83-2.028 5.085-0.726 0.789-1.116-1.234-0.716-1.667m3.078-2.124c0.683 1.185-0.414 0.687 0 0zm2.837-4.53c0.743-0.77 2.01-1.405 1.141 0.156-2.012 0.032-3.357 3.256-3.877 3.63-0.815-1.818 1.534-2.93 2.736-3.786zm1.697 0.34c-0.17 0.918-0.569-0.126 0 0m2.147-2.916c1.143-0.555 4.086-1.208 2.148 0.664-1.416-0.327-3.913 2.253-4.11 1.372 0.374-0.888 1.025-1.712 1.962-2.037zm3.369-0.608c1.342-0.672 4.016-1.482 4.803-1.201-1.674 1.101-3.891 1.039-5.47 2.444 0.208-0.422 0.461-0.819 0.667-1.242zm4.533-0.082c-0.627 1.354-1.102 0.266 0 0zm0.37 0.108c-0.489 1.158-0.719-0.128 0 0m0.293 0.08c-0.227 0.902-0.608-0.217 0 0zm0.158 0.051c0.642 0.108-0.571 0.511 0 0m-5.144 1.222c-0.125-0.548 0.879-0.815 0 0zm0.452-0.055c-0.748 0 1.687-1.879 0.21-0.247l-0.21 0.247zm0.608-0.186c-0.967 0.277 1.715-2.108 0.386-0.537l-0.223 0.296-0.164 0.241m0.586-0.16c-0.956 0.215 1.718-2.107 0.384-0.515l-0.222 0.29-0.162 0.225m0.608-0.158c-0.95 0.115 1.756-2.002 0.177-0.22l-0.177 0.22m1.405-1.006c0.537 0.467-1.295 1.424 0 0m-0.821 0.901c-0.835-0.012 1.488-1.778 0.145-0.193l-0.145 0.194m-3.128 1.564c0.796-1.487 4.817-1.733 5.348-1.514-1.447 1.286-3.52 1.357-5.348 1.514zm5.49-0.028c-1.405 0.038-4.641 0.774-4.796 0.294 1.604 0.148 3.403-1.388 4.796-0.294zm-5.251 1.063c-1.409 0.085-4.306 2.358-4.586 1.271 1.472 0.027 3.523-2.481 4.586-1.271zm-5.225 0.664c-0.021-1.144 0.928-1.497 0 0zm0.663-0.292c-1.277 1.105 1.367-2.707 0.152-0.314l-0.152 0.314zm0.691-0.477c-1.239 0.77 1.467-2.679 0 0zm0.688-0.4c-1.178 0.655 1.206-2.311 0 0zm0.636-0.317c-1.136 0.507 0.958-1.895 0 0m0.533-0.24c-0.936 0.33 0.814-1.556 0 0m0.556-0.209c-0.923 0.313 0.637-1.245 0 0m0.689-0.267c-0.023-0.571 1.055-0.144 0 0zm-0.477 0.185c0.054-1.027 0.807-0.143 0 0zm1.088-0.211c-0.645 1.383-4.682 3.214-4.088 1.929 1.247-0.86 2.667-1.432 4.088-1.929zm-8.193 6.337c0.019-0.727-1.151 0.011 0.188-0.7 1.416-0.395 2.729-3.508 3.412-3.01-0.778 1.54-1.882 3.152-3.601 3.71zm2.014-3.736c-0.176-1.339 0.626-0.625 0 0m-0.398 0.424c-0.289-1.555 0.756-0.987 0 0m-0.424 0.424c-0.161-1.201 0.422-1.775 0.238-0.241l-0.238 0.241m-0.371-1.034c0.717 0.052-0.247 2.577-0.011 0.32l0.011-0.32m-0.421 0.318c0.532-0.473 0.023 2.785 0 0.746l-0.009-0.393 0.009-0.352m-0.453 0.426c0.644-0.747 0.025 2.766 0.036 0.748l-0.017-0.409-0.019-0.339zm-0.397 0.555c0.63-0.714-0.04 2.655-0.005 0.289l0.005-0.289m3.392-1.831c-0.101 1.524-2.66 4.105-3.502 3.554 1.253-1.096 2.413-2.296 3.502-3.554zm-6.205 8.779c-0.031-1.602 2.657-2.203 2.733-4.164 0.458 1.072-1.496 3.318-2.733 4.163m-1.591 4.749c0.296-1.297 1.519-3.1 1.788-4.586 0.862-0.411-0.537 2.367-0.762 3.208-0.254 0.517-0.594 0.995-1.026 1.378zm0.479 0.104c-0.023 1.276 0.035 4.079-1.007 4.137 0.665-1.111 0.122-3.918 1.007-4.137zm-0.742 9.042c1.56 1.192-1.545 1.216 0 0m-0.026-0.529c-0.16 0.989-0.857 0.476 0 0m0.133-0.611c-0.153 1.047-1.342 0.969 0 0m0.053-0.531c-0.322 1.051-1.529 1.24 0 0m0.024-0.475c-0.422 1.204-1.57 1.056 0 0m-0.901 0.317c1.221-1.47 1.089-0.173 0 0m-0.423-2.651c0.036 1.716 0.326 3.408 0.45 5.117-0.907-1.497-1.396-3.517-0.45-5.117zm0.609-5.569c-0.53 1.826-0.197 3.955-0.928 5.597-0.745-1.719-0.475-4.239 0.928-5.597zm-0.292 0c-0.377-0.163-0.191-1.924-0.048-0.272l0.048 0.272zm0.346-0.374c-0.607 0.584-0.481-3.016-0.187-0.843l0.098 0.446 0.089 0.397zm0.265-0.633c-0.41 1.275-0.694-3.36-0.13-0.585l0.079 0.334 0.051 0.25zm0.264-0.796c-0.484 1.073-0.602-2.954-0.088-0.346l0.088 0.346zm0.238-0.663c-0.451 0.971-0.572-2.742 0 0zm0.239-0.558c-0.497 0.74-0.304-2.046 0 0zm0.08-0.237c-0.521-1.178 0.399-1.278 0 0zm-0.663 4.295c0.167 0.542-1.103 0.64-0.239 0.156l0.239-0.156m-0.344-0.398c-0.18-1.268 0.636 0.058 0 0zm0.292 0.056c0.057 0.709-0.923 0.237 0 0m-0.558 1.454c0.202-1.016 1.522-0.712 0 0m-0.078 0.533c0.404-1.031 1.388-0.717 0 0m-0.028 0.556c0.166-1.017 1.52-0.865 0 0m-0.024 0.53c0.165-1.067 1.484-0.875 0 0m0 0.475c0.073-0.817 1.272-0.949 0.227-0.195l-0.227 0.195m0 0.427c0.122-0.92 1.313-0.863 0 0m0.369 0.902c0.168 0.642-1.153 0.857 0 0m-0.212-0.822c0.628-0.966 0.172 0.528 0 0m0.106 0.69c-0.56 1.09-0.294-1.078 0 0m-0.319 1.246c-0.238-0.562 1.292-1.063 0.342-0.314l-0.342 0.314m0.028 0.449c0.296-1.031 1.371-0.975 0 0m0.902-0.133c-0.167 0.965-1.546 1.172-0.159 0.151l0.159-0.151m-0.849 0.557c0.216-0.938 1.705-1.338 0 0m1.989-12.224c0.218 0.923-0.587 0.194 0 0m0.106-0.37c-0.42 0.781-0.229-1.008 0 0m0.158 0.267c-0.118 0.519-0.243-0.061 0 0m0.109-0.585c-0.547 0.341-0.396-1.301 0 0m0.238-0.319c-0.552 0.282-0.532-1.624 0 0m0.237-0.289c-0.616 0.225-0.62-1.746 0 0zm0.238-0.321c-0.646 0.18-0.656-1.828 0 0zm0.212-0.316c-0.629 0.377-0.564-1.868 0 0zm0.239-0.32c-0.653 0.264-0.631-1.758 0 0zm0.238-0.369c-0.298 0.787-0.755-1.686-0.185-0.385l0.185 0.385zm0.133-0.161c-0.905-1.232 0.253-1.014 0 0zm1.166-1.75c-0.244-1.403 0.737-1.685 0 0m-0.371 0.319c0.26 0.598-0.547 0.155 0 0m0.268-0.106c-0.044 0.457-0.284-0.101 0 0m-0.4-0.105c0.143-1.146 0.701-0.188 0 0m-0.158 0.899c-0.673-0.787 0.47-0.531 0 0m0.688-0.688c0.132 1.502-1.491 4.056-2.625 3.714 0.978-1.163 1.745-2.479 2.625-3.714m-3.554 4.533c0.578-0.177-0.075 1.146 0 0m0.716-0.105c0.286 1.173-0.702 4.802-1.59 4.056 0.381-1.402 0.826-2.809 1.59-4.056zm-0.902 9.919c0.224 1.384 0.969 4.483-0.144 4.787 0.069-1.324-0.524-3.659 0.144-4.787m0.93 4.506c0.634 1.534-1.493 0.86 0 0m-0.502 1.407c0.88-0.015 1.853 2.062 0.542 0.545l-0.276-0.279-0.266-0.266zm-0.665 0.054c0.63 0.04-0.723 2.799-0.182 0.807l0.095-0.407 0.088-0.4m-0.609 1.244c0.438-2.725 0.622-0.061 0 0zm0.158 0.454c-1.146-0.264-1.651-1.921-0.292-0.304l0.292 0.304m-0.505-1.355c0.486 0.292-0.448 0.303 0 0zm0.08 0.345c0.876-1.214-0.519 1.135-0.344-0.186 0.007 0.166 0.207 0.266 0.344 0.186m1.67 0.478c-0.847-0.28 0.575-0.64 0 0zm0.107-0.478c-0.698-0.167-0.431 1.539-0.787 0.4-0.094-1.734 1.026-0.645 1.372 0.001-0.803 0.513-0.121-0.321-0.585-0.4m1.034-0.186c0.711 1.507-1.579-1.634-0.344-0.175l0.344 0.175m-0.267-0.527c0.729 0.709-0.368 0.237 0 0zm1.249 4.187c-1.427-0.15-0.843-3.916-0.245-1.509 0.137 0.491 0.259 0.996 0.245 1.509m0.182 0.451c0.225 2.635-0.566-0.323 0 0m-0.555 0.24c-0.05-1.927 0.517 1.001 0 0m-0.557-0.875c0.794 0.116 0.356 1.164 0 0zm-0.08-0.929c0.218 0.843-0.716 0.825 0 0m-0.078-0.611c0.021 1.143-1.095 1.638 0 0m-0.61 0.798c-0.16-1.021 1.103-1.735 0.136-0.264l-0.136 0.264m0.079 0.501c-0.014 1.537-2.275-3.018-0.596-0.968 0.187 0.33 0.386 0.652 0.596 0.968m0.054-1.855c0.347 0.372-1.085 1.664 0 0m-0.558 0.582c-0.423-0.56 0.92-0.915 0 0m4.8 6.921c-1.804-1.105-3.488-2.821-3.941-4.949 0.554-0.345 1.765 2.658 2.722 3.445 0.412 0.497 0.834 0.985 1.219 1.504zm-2.305-4.64c0.547 1.07-0.171 2.417 0 0m0.53 0.504c0.09 1.7-0.303 1.309-0.161-0.159l0.161 0.159m0.37 0.398c0.134 1.518-0.285 1.632-0.186 0.208 0.034-0.147-0.111-0.763 0.186-0.208m0.398 0.48c0.094 1.931-0.371 1.394-0.16-0.216l0.16 0.217m0.369 0.526c0.076 1.891-0.349 1.319-0.156-0.238l0.156 0.238m0.32 1.937c-0.586-1.035 0.316-1.935-0.053-0.689l0.017 0.414 0.036 0.275m-1.378-4.612c0.921 0.728 2.222 3.808 1.633 3.34-0.346-1.192-2.881-3.376-1.993-3.779l0.16 0.199 0.2 0.24zm3.234 4.851c-0.921 1.181-1.601 0.571-1.668-0.768 0.596 0.154 1.172 0.401 1.668 0.768zm-1.167-1.642c1.153 0.051 2.631 2.176 0.739 1.145-0.555-0.196-0.854-0.519-0.739-1.145zm3.553 1.88c-1.323-0.095-1.238-0.862 0 0zm-1.934 0.137c1.075-0.292 3.638 0.902 1.06 0.253-0.353-0.085-0.707-0.166-1.06-0.252zm0.239 1.534c-0.56-1.215-0.396-2.075 0.06-0.328l0.124 0.383-0.183-0.055m-0.718-1.246c0.689 0.314 0.488 2.157 0.072 0.291l-0.072-0.29m-0.531 0.478c0.811 0-0.376 0.688 0 0m0.242 0.372c-0.219-1.3 0.792 0.076 0.196 0.222-1.031-0.068-1.114-0.646-0.196-0.222zm0.716 0.848c-0.657 0.461-2.948-0.875-0.852-0.245l0.497 0.138 0.356 0.108zm-1.646-0.586c0.798-0.338 3.004 0.85 0.878 0.217l-0.455-0.112-0.423-0.104zm2.786-0.449c-0.653 0.44-0.108-0.765 0 0m-0.213-0.397c-0.373 0.433-0.036 1.442-0.558 0.251-1.025-1.846 3.443 0.93 0.558-0.251zm1.775-0.267c-0.829-0.143-3.394-0.785-1.215-0.45 0.412 0.125 0.893 0.105 1.215 0.45zm3.288 2.625c-0.757-0.962-3.764-1.369-3.575-1.75 1.051-0.372 3.687 0.287 3.575 1.75zm3.794 0.691c0.752 0.394 0.943 1.11 0 0zm0.395 0.742c-0.995-0.773-1.274-1.467-0.073-0.269 0.065 0.114 1.017 0.846 0.073 0.27zm-8.005-2.255c-0.709-0.131-0.418-1.055 0 0m0.474 0.211c-0.818-0.21-0.4-1.432 0 0zm0.477 0.214c-0.829-0.415-0.572-1.715 0 0zm0.502 0.213c-1.093-0.917-0.486-1.48 0 0zm0.507 0.209c-0.939-0.538-0.768-2.111 0 0m0.506 0.213c-1.017-0.709-0.583-1.983 0 0zm0.527 0.213c-0.699-0.176-0.739-1.847-0.201-0.466l0.201 0.468m0.106-0.265c-0.78-0.939 0.638-0.17 0 0m4.03 2.227c-0.645 1.521-4.525-0.08-3.806-0.691 1.213-0.34 2.425 1.212 3.806 0.691zm0.876-0.691c-1.339 1.172-4.547 0-4.557-1.404 1.248 1.221 3.207 0.479 4.557 1.404m-3.312-0.955c-1.362-0.412-0.775-1.104 0 0m0.53 0.159c-0.948-0.341-1.458-1.726 0 0m0.452 0.028c-1.17-0.446-1.206-1.475 0 0m0.449 0.054c-1.04-0.34-1.345-1.554-0.234-0.231l0.234 0.231m0.478 0.051c-1.122-0.409-1.732-1.946 0 0m-0.241-0.821c1.4 0.795 1.675 1.83 0 0m0.77 0.927c-0.989-0.38-1.613-1.698-0.222-0.226l0.222 0.227m-7.929-2.356c0.2-0.387 0.485 0.578 0 0m0.08 0.263c0.924 0.743 4.685 1.283 3.767 2.465-1.13-0.241-4.52-1.58-3.767-2.464zm2.679 3.419c-2.612-1.101 1.35-0.341 1.971 0.249 1.128 0.422 3.173 0.624 1.132 1.477-1.041-0.011-3.683-0.748-3.723-0.755 0.231-0.247 0.771-0.553 0.62-0.971m5.091 0.505c-1.312 2.364-3.57 1.289-5.592 0.945-2.045-0.032 2.012-0.498 2.593 0.38 1.992 0.743 2.865-2.491 4.537-2.413-0.581 0.248-1.094 0.644-1.538 1.087m0.875-0.478c1.036-0.966 1.969 0.963 0 0m-0.317 0.265c1.159-0.311 2.676 0.803 0.539 0.111l-0.252-0.053-0.287-0.057zm-0.374 0.345c0.592-0.695 0.35 3.175 0.14 0.953l-0.072-0.516-0.068-0.437zm-0.317 0.267c0.63-0.183 0.278 3.342 0.085 0.754l-0.033-0.271-0.053-0.483zm-0.714 0.715c0.875 0.074-0.411 0.72 0 0zm-0.638 0.5c0.676-0.106 1.201-0.07 1.082-0.929 0.228-0.333 0.833 2.722-0.365 1.339l-0.433-0.236-0.283-0.173zm-0.477 0.216c0.859-0.233 2.699 1.551 0.823 0.436l-0.424-0.226-0.399-0.21m-0.558 0.024c0.927-0.032 3.057 1.737 1.057 0.616-0.36-0.192-0.725-0.377-1.057-0.616zm0.398 0.478c2.558 0.468 0.203 2.042-1.167 1.22 0.384-0.411 0.768-0.822 1.167-1.22zm-0.318-0.213c0.366 0.453-2.183 2.194-0.609 0.649l0.307-0.328 0.302-0.322m-0.294-0.186c0.337 0.57-2.252 2.117-0.647 0.651 0.216-0.217 0.432-0.433 0.647-0.651zm-1.375-0.395c0.932-0.141-0.256 0.818 0 0m-0.77-0.349c0.835-0.327 0.502 1.741 1.326 0.4 1.473 0.025-1.377 2.69-1.01 0.582l-0.158-0.488-0.158-0.494m-0.477-0.027c0.912 0.469 0.883 3.03 0.271 0.798l-0.135-0.396-0.136-0.401m-0.451 0.027c0.8 0.146 0.842 2.773 0.238 0.807l-0.126-0.417-0.111-0.39m-0.079 0.4c1.193 1.732-2.095 1.033 0 0zm-0.16-0.4c0.144 0.828-2.18 1.998-0.65 0.663l0.328-0.337 0.322-0.327m-1.857 1.037c0.272-1.175 1.865-1.365 0 0zm1.247-0.983c0.945-0.052-2.35 2.324-0.64 0.678l0.349-0.366 0.291-0.311m7.266-1.087c0.225-0.627 3.026 0.66 0.783 0.147l-0.411-0.078-0.371-0.069zm0.663 0.875c-0.846-0.1 0.443-0.753 0 0m-0.421-0.186c0.674 1.698-1.172-1.063 0.5-0.432 2.141 0.655-0.649-0.065-0.5 0.432m-2.071-4.349c1.242 0.111 2.582 1.325 0.53 0.53-1.345-0.191-2.5 0.133-2.812-1.484 0.793 0.236 1.493 0.704 2.282 0.955zm3.658-0.185c-0.564 0.707-1.286 1.508-1.588 0.134 0.527-0.06 1.055-0.15 1.588-0.134zm0.107 0.185c-0.261 1.203-1.963 1.418 0 0m8.272 3.979c0.455-0.709 0.474 0.7 0 0zm-0.689-0.186c0.813 0.153 0.923 0.551 1.459 0.027-0.051 2.232-0.508 1.056-1.459-0.027m-0.423 0.134c0.833-0.098 1.799 2.275 0.52 0.623l-0.268-0.324-0.251-0.299zm-0.319 0.184c0.677-0.133 1.621 2.166 0.469 0.621l-0.255-0.329-0.213-0.292zm-0.504 0.4c0.673-0.403-0.73 3.289-0.186 0.964l0.105-0.518 0.081-0.446zm-0.424 0.237c0.681-0.2-0.75 3.282-0.186 0.905l0.09-0.466 0.096-0.439zm-0.688 0.797c-0.98-0.208 0.583-0.755 0 0zm-0.638-0.532c0.599-0.356 0.223 1.397 0.914 0.234 0.375-1.698-0.133 3.341-0.676 0.534l-0.13-0.429-0.109-0.339m-0.477-0.08c0.902 0.255 0.819 3.254 0.289 0.955l-0.138-0.478-0.151-0.477zm-0.716-0.449c0.183 0.618-2.865 0.871-0.562 0.203l0.247-0.087 0.315-0.116zm-0.663-0.239c-0.898 0.297 0.093-0.846 0 0zm-0.45-0.876c0.593 0.167-0.447 1.56 0.611 0.717 0.803 0.48-2.109 1.318-0.827-0.149l0.099-0.268 0.118-0.3zm-0.317-0.45c0.497 0.799-1.083 2.721-0.294 0.815l0.157-0.425 0.137-0.389zm-0.268-0.372c0.406 0.657-1.103 2.812-0.319 0.891l0.174-0.477 0.145-0.415zm-0.263-0.478c-0.033 0.438-3.103 0-0.902 0l0.448 0 0.454 0m-0.213-0.319c0.121 0.505-3.181-0.023-0.901 0.015l0.448-0.01 0.453 0m-0.45-0.66c-0.363 0.797-0.579-0.579 0 0zm-1.485 0.398c-0.037-1.011 1.935-1.547 0.262-0.259l-0.262 0.259zm1.165-0.929c0.094 0.132-0.434 1.303 0.425 0.663 0.968 0.686-2.773 0.666-0.928-0.16l0.319-0.319 0.185-0.184m0.292 2.361c0.276 0.852-0.885-0.086 0 0zm0.161 0.32c0.05-1.048-0.973 0.341-1.063-0.797 1.637-0.452 1.897 0.254 1.116 1.617-0.201-0.563-0.96-0.61-0.053-0.82m2.755 1.748c-0.989 0.593-2.182 0.455-0.427-0.08 1.306-0.753 1.239 3.743 0.658 0.968l-0.136-0.509-0.095-0.379m-0.765 0.848c0.644-0.662 0.385 0.79 0 0zm0.474 0.291c0.398-1.16-1.8 0.26-0.396-0.702 1.265-0.576 0.972 2.346 0.175 0.792l0.221-0.089m3.742-0.582c-0.844-0.133 0.456-0.689 0 0m0.131-0.452c-0.814-0.289-0.26 1.736-0.743 0.565-0.022-1.508 0.426-1.438 1.14-0.276-0.811 0.664-0.01-0.104-0.397-0.288m-6.79-5.198c1.375 1.638 2.112 4.519 4.523 4.783 0.828-0.447 3.692-1.774 3.403-1.06-1.917 0.074-4.021 2.617-5.56 0.087-0.65-0.998-2.705-3.407-2.366-3.811m5.358-0.635c-1.129 0.986-3.428 0.835-4.503 1.362 0.789-1.1 3.038-1.366 4.503-1.362zm0.344 1.432c-0.218-0.666 0.637 0.133 0 0m-0.372 0.106c-0.148-1.05 0.728-0.309 0 0m-0.372 0.079c-0.01-1.554 0.741-0.583 0 0.001m-0.342 0.053c-0.092-1.426 0.729-0.781 0 0m-1.298 0.184c-0.611-0.389 0.584-1.7 0 0m0.343-0.051c-0.553-0.364 0.531-1.787 0 0zm0.716-1.009c0.647 0.244-0.55 1.854 0 0m-0.342 0.954c-0.617-0.327 0.568-1.776 0 0m-1.327 0.188c0.018-1.781 0.893-0.704 0 0m-0.426 0.106c-0.017-1.496 0.855-0.715 0 0m1.354-0.053c0.891 0.015 3.206-0.89 1.334 0.253-1.01 0.939-5.026 0.743-2.038-0.161l0.347-0.054 0.357-0.038zm-1.593-0.69c0.627 0.19-0.668 1.718 0 0m-0.716 0.902c-0.568-0.531 0.629-1.156 0 0zm0.344-0.768c0.663 0.149-0.716 2.088 0 0m0.611 2.172c-0.607-0.759 2.766-0.775 3.326-1.166 1.867 0.391-2.909 1.44-3.326 1.166zm5.622 0.426c-1.987 0.085-4.166 2.568-5.544-0.187 2.009 0.432 5.301-2.017 6.067-1.709-0.985 0.332-1.89 1.242-0.523 1.897zm2.095-4.959c-0.579 0.288 0.234-1.307 0 0m-0.557 0.4c-0.141-1.313 0.715-0.791 0 0m-0.371 0.263c-0.165-1.465 0.787-0.915 0 0m-0.396 0.267c-0.172-1.645 0.847-0.963 0 0zm-0.374 0.238c-0.156-1.71 0.772-1.134 0 0zm-0.398 0.211c-0.183-1.862 0.802-1.048 0 0zm-0.425 0.24c-0.127-1.789 0.79-1.112 0 0zm-0.369 0.187c-0.105-1.032 0.462-1.522 0.21-0.111l-0.21 0.111zm-0.372 0.159c-0.148-1.629 0.711-1.022 0 0zm-0.372 0.159c-0.109-1.588 0.783-0.854 0 0m-0.37-0.159c0.112-1.252 0.515 0.517 0 0zm4.136-2.07c-0.274-0.956 0.634-0.158 0 0m0.689-0.267c0.323 1.539-3.096 2.811-4.799 3.106 1.508-1.076 3.395-1.772 4.799-3.106zm-1.591-0.502c1.091 0.47-2.226 1.097-2.825 1.965-2.752 1.762 0.238-1.822 2.825-1.965zm1.301-0.609c0.839-0.271-0.07 0.869 0 0zm0.502 0.582c-0.854 0.214 0.586-1.05-0.613-0.625-1.093 1.07 0.545-1.131 0.875-0.432-0.087 0.352-0.18 0.704-0.262 1.057zm0.292 0.108c-0.198-1.173 0.646-2.049 0 0m0.263 0.132c-0.13-1.307 0.677-2.034 0 0.001m2.309-0.159c0.242 0.515-3.05 0.841-0.827 0.256l0.429-0.132 0.398-0.124zm-1.856 0.397c-0.007-0.538 3.061-0.881 0.739-0.243l-0.332 0.109-0.407 0.135zm0.635-0.848c-0.931 0.285 0.133-0.999 0 0m-0.263-0.45c-0.498 1.329 0.713-0.406 1.06 0.476-1.379 1.083-2.278 0.001-1.097-0.608 0.658 0.18 0.186 0.122 0.037 0.132zm-1.352-0.611c0.015 0.472-2.732 1.357-0.647 0.323l0.253-0.136 0.395-0.187m-0.292-0.052c0.296 0.121-0.956 0.421 0 0m1.194-0.663c0.309 0.915-1.217 0.399 0 0zm0.689 0.318c0.173 0.475-0.368 0.611 0 0zm0.318-0.452c0.204 1.178-0.519 1.204 0 0zm-0.265-0.687c0.822-0.86 2.054-2.949 2.581-2.984-0.042 1.839-2.523 2.69-3.061 4.362-0.233-0.519 0.186-0.999 0.48-1.378zm2.784-1.962c0.234 1.745-0.494 1.091 0 0zm1.43-1.327c-0.178-1.416 0.219-2.165 0.188-0.318l-0.188 0.318zm-0.239 1.035c-0.266-0.572 1.066-0.461 0 0m-0.155-1.699c0.499-0.948 0.003 2.768 0 0zm0 1.461c0.143 0.864-0.517 0.478 0 0m-0.265-0.133c-0.209-1.325 0.499-1.177 0 0m-0.082 0.291c0.167 1.205-0.579 0.719 0 0m-0.133-0.212c-0.513 0.374 0.207-0.792 0 0zm-0.369 0.48c0.542 0.01-0.191 1.585 0 0m-0.666 0.448c0.595 0.069-0.147 1.976 0 0m-0.316 0.291c0.551-0.121-0.09 2.129 0.019 0.252l-0.019-0.252zm-0.32 0.345c0.56-0.476-0.078 2.258 0.015 0.252l-0.015-0.253m-0.319 0.371c0.517-0.386-0.095 2.135 0.005 0.263l-0.004-0.263m-0.371 0.399c0.623-0.187-0.154 2.057 0 0zm-0.29 0.345c0.534-0.175-0.161 1.962 0 0m-0.292 1.272c-0.187-1.103 0.512-1.209 0 0m3.949-3.791c-0.236 1.966-2.039 4.317-4.031 4.136 1.357-1.365 2.733-2.713 4.031-4.136zm0.529-2.174c-0.264-0.655 0.575-0.941 0 0zm-0.342-0.717c0.536 1.107-0.255 1.914 0 0m0.769 0.319c1.879 0.748-1.695 3.5-0.767 1.529 0.249-0.513 0.511-1.019 0.767-1.529zm-1.459-0.53c1.033 0.202-1.079 2.932-0.987 2.749-0.213-1.044 0.613-1.84 0.987-2.749zm0.503-0.635c0.342-0.59 0.391 0.56 0 0zm1.034 0.53c-0.813-0.868-0.384-2.506-0.096-0.394l0.096 0.394m0.369 0.157c-0.595-0.449-0.564-2.809-0.184-0.835l0.097 0.418 0.087 0.418m0.055-0.529c-1.24-2.057 2.269-0.525 0 0zm0.079 0.397c0.418-1.145 2.187-1.055 0 0zm1.272-0.29c0.514 1.559-0.831 1.406-0.712 0.472 0.236-0.159 0.471-0.32 0.712-0.472m-1.113 0.553c-0.295-0.459 2.313-1.543 0.659-0.448l-0.326 0.227-0.333 0.221zm-1.326-1.695c0.421 1.092 0.098 1.66-0.158 0.61-0.869 0.862-0.67 0.031 0.158-0.61m-0.318-0.29c0.633 0.152-1.204 1.63-0.121 0.197l0.121-0.197m0.451-1.301c1.143 1.488-1.105 1.008 0 0zm0.581-4.136c1 1.004-0.324 3.722-0.25 4.074-0.469-1.256-0.025-2.791 0.25-4.074zm-0.846-5.46c1.477 1.201 0.668 3.745 1.486 5.511-0.909-0.364-0.732-3.98-1.486-5.511zm-0.637-1.699c-0.903-0.958-1.458-3.118 0.01-1.138 0.239 0.966 2.617 4.356 0.729 2.184-0.263-0.337-0.499-0.693-0.739-1.046m-3.049-5.81c0.983 0.836 2.744 2.504 3.073 4.005-1.414-0.968-2.431-2.433-3.073-4.005zm0.397-0.555c0.089 0.603-0.663-0.227 0 0zm-0.797-0.344c1.169-0.249 0.652 0.496 0 0m-3.976-2.098c1.434 0.199 2.877 1.774 4.028 2.706-1.449-0.658-2.927-1.552-4.028-2.706m-4.853-2.039c1.79-1.076 4.368 0.99 5.249 1.75-1.829-0.129-3.363-1.695-5.249-1.75zm-3.978-1.063c1.481-0.883 3.978 0.124 5.597 0.372-1.868 0.52-3.807 0.373-5.597-0.372zm0.213-1.218c-0.873-0.473 1.286-0.134 0 0m4.881 0.793c0.465 0.539-1.387 0.246 0 0.001m-0.133-0.315c-0.236 0.825-1.864 0.733 0 0m-0.4-0.159c0.59 0.286-2.332 1.095-0.286 0.154l0.286-0.153m-0.61-0.083c0.689 0.273-2.396 1.127-0.267 0.145l0.267-0.145zm-0.583-0.079c0.654 0.311-2.434 1.052-0.264 0.142l0.264-0.141m-0.607-0.079c0.712 0.292-2.317 0.985-0.261 0.135l0.261-0.135m-0.613-0.079c0.751 0.198-2.143 0.98-0.227 0.117l0.227-0.116zm-1.591 0.237c-0.398-0.515 1.44-0.428 0 0zm0.956-0.32c0.801 0.234-1.869 0.785 0 0m3.791 0.109c-1.392 0.043-4.821-0.233-4.93-0.655 1.619-0.283 3.47-0.136 4.93 0.656zm-5.436-2.12c1.521 0.577 5.701 0.053 5.162 1.654-1.617-1.071-4.53 0.393-5.162-1.654zm8.991 4.982c0.424 0.55-1.108-0.03 0 0.001m-0.081-0.316c-0.432 0.661-1.226 0.187 0 0m-0.267-0.265c0.415 0.475-2.354 0.57 0 0m-0.396-0.213c0.211 0.492-2.265 0.576 0 0zm-0.4-0.212c0.462 0.365-2.103 0.577-0.253 0.09l0.253-0.09zm-0.421-0.237c0.386 0.525-1.9 0.382 0 0zm-0.425-0.214c0.417 0.444-1.736 0.416 0 0zm-0.427-0.239c0.591 0.438-1.497 0.319 0 0zm-0.952-0.238c-0.475-0.432 0.822 0.019 0 0m0.477 0.025c0.91 0.295-1.245 0.261 0 0zm4.375 1.564c-1.856-0.171-3.373-1.459-5.064-2.172 1.824 0.091 3.941 0.615 5.064 2.172zm-0.183-1.432c1.042 2.585-1.43-0.984-2.803-0.731-1.574 0.436-2.965-2.56-0.884-1.239 1.271 0.472 3.045 0.582 3.687 1.971zm-0.612 1.67c0.997-0.564 5.242 2.078 3.915 2.933-1.167-1.143-2.453-2.19-3.915-2.933zm3.818 3.235c0.148 0.546-2.093-0.151-0.259 0.016l0.259-0.016m-0.344-0.369c0.192 0.563-2.433-0.133-0.319 0l0.319 0m-0.398-0.371c0.157 0.546-2.717-0.124-0.336 0l0.336 0m-0.398-0.372c0.018 0.574-2.795-0.105-0.338 0.02l0.338-0.02m-0.423-0.318c0.447 0.479-2.776-0.02-0.746 0.012l0.409-0.01 0.336 0m-0.453-0.345c0.192 0.5-2.667-0.108-0.326 0l0.326 0zm-0.475-0.371c0.229 0.549-2.299-0.133-0.316 0 0.105 0 0.21 0 0.316 0zm-0.531-0.344c0.51 0.471-2.285-0.077 0 0zm-1.248-0.611c-0.321-0.459 0.857 0.159 0 0zm0.667 0.214c0.892 0.561-1.449-0.12 0 0zm0.712-2.572c1.076 1.697 3.3 2.272 4.165 4.135-0.034 1.738-1.611-1.588-2.793-1.65-1.115-0.233-1.393-1.482-1.373-2.485zm5.491 8.295c0.374 0.672-2.373-0.785-0.268-0.071l0.268 0.071zm-0.424-0.473c0.412 0.777-2.415-0.953 0 0zm-0.396-0.478c0.163 0.721-1.901-0.83 0 0zm-0.346-0.505c0.214 0.704-1.979-0.762 0 0m-0.316-0.45c0.349 0.653-1.458-0.654 0 0zm-0.583-0.742c-0.092-0.597 0.58 0.45 0 0.001m0.342 0.266c0.57 0.773-1.074-0.456 0 0zm1.088 2.756c-0.196-0.588 2.344 0.763 0.234 0.075l-0.234-0.074m0.371 0.479c-0.518-0.8 1.678 0.73 0 0m0.61 0.689 0 0.133c0.001 0.116-0.307-0.371 0-0.133m-0.239-0.21c-0.712-0.678 0.97 0.199 0 0m1.513-0.029c-1.157-0.957-3.598-3.886-3.203-4.446 1.329 1.238 2.836 2.58 3.203 4.446m-2.335-5.383c0.777 1.239 3.293 3.797 2.369 4.52-0.468-1.728-2.963-2.57-2.452-4.473l0.083-0.047m3.077 4.325c0.332 1.484 2.574 4.587 1.195 5.067 0.094-1.979-2.418-3.242-1.195-5.067m0.901 10.393c0.161-1.235-0.515-4.456-0.131-4.337 1 1.169 1.305 4.669 0.368 4.742l-0.236-0.405zm-0.559 4.986c0.594-1.115 0.412-3.818 0.7-4.052 1.191 0.786 0.192 6.762-0.7 4.052zm-0.316 0c1.731 2.191-1.976 1.033 0 0zm-0.343-0.027c-0.348 0.648-0.173-0.675 0 0zm0.396-0.214c-0.794 0.367-0.552-1.162 0 0m0.238-0.343c-0.488 0.699-1.114-1.743 0 0m0.106-0.503c-0.293 0.9-1.337-1.752 0 0m0.108-0.453c-0.436 0.807-1.278-1.635 0 0zm0.053-0.477c-0.261 0.829-1.29-1.527 0 0m0.079-0.502c-0.198 0.944-1.239-1.369 0 0zm0-2.705c-0.172 0.697-1.286-1.29 0 0zm0.025-0.397c-0.138 0.771-1.597-1.483-0.215-0.157l0.215 0.157zm0-0.45c-0.243 0.666-1.692-1.485-0.231-0.176l0.231 0.176zm-0.133 2.12c0.211-0.749 0.258 0.618 0 0zm-0.239 0.372c0.415-0.724 0.625 1.055 0 0zm-0.053 0.129c1.176 0.876-0.198 0.976 0 0zm-0.08-1.429c-0.403-1.083 1.258 1.037 0 0zm0.186 0.715c-0.102 0.454-0.139-0.318 0 0m-0.105-0.267c-0.352-0.718 0.719 0.414 0 0m0.399-2.065c-0.251 0.662-1.812-1.662-0.257-0.197l0.257 0.197zm0-0.481c0.135 0.976-1.984-1.55-0.576-0.402l0.303 0.216 0.272 0.186m-0.026-0.395c-0.361 0.537-1.842-1.621-0.275-0.206l0.275 0.206zm-0.053-0.478c-0.177 0.693-1.796-1.544-0.251-0.182l0.251 0.182zm-0.902-1.063c1.245 0.473 1.003 1.591 0 0zm0.184-0.873c-0.144 0.675-0.694-0.705 0 0zm0.265-0.239c-0.836 0.283-1.524-0.99 0 0zm-0.079-0.531c0.42 1.005-2.359-1.247-0.273-0.105l0.273 0.105zm-0.265-0.504c0.156 0.78-2.193-1.184-0.332-0.154l0.332 0.154zm-0.238-0.503c0.028 0.715-2.086-1.142-0.283-0.115l0.283 0.116zm-0.263-0.53c0.328 0.832-2.075-1.095-0.27-0.124l0.27 0.124zm-0.215-0.505c0.108 0.825-1.699-1.019 0 0zm-0.212-0.473c0.136 0.677-1.511-0.946 0 0zm1.594 2.807c-0.536-1.176-1.872-3.394-1.643-3.979 0.985 0.402 3.134 5.174 1.643 3.979m0.024 1.486c-0.01 0.919-1.343-1.4 0 0zm-0.397-0.847c0.259-0.644 0.577 0.924 0 0zm0.344 0.396c0.213 0.994-1.257-1.139 0 0m-2.176-4.719c-0.046-0.778 0.819 0.752 0 0m0.426 0.398c0.455 0.924-1.349-0.862 0 0m3.341 3.286c0.801 1.518 0.625 5.483-0.24 5.501 1.175-1.949-1.701-4.386 0.24-5.501m0.82 3.925c0.117-1.782-0.458-4.02-0.827-4.96-0.84-2.312-1.654-4.271-2.831-5.86-1.074-1.44-2.207-3.045-3.029-3.407-1.159-1.288-3.307-2.997-4.129-3.672-1.136-0.489-3.694-1.155-5.171-2.12-0.431 0.8-3.062-0.601-4.3-0.192-1.218-0.449-1.858-0.44-0.886 0.796 0.743 0.726-1.769 0.654-0.248 1.316 1.58 0.486-1.463 1.647 0.784 1.651 2.542 0.504 4.743 1.096 7.19 2.21 1.717 1.165 3.3 2.588 5.204 3.472 1.558 2.368 1.922 3.727 3.259 6.046 0.824 0.944 0.789 1.008 0.275 1.152 0.837 1.63 0.873 3.502 1.24 5.265-0.826 1.927-0.317 4.186-1.194 5.913-0.798 1.962-1.159 3.172-2.572 4.792-1.344 1.704-2.521 3.507-4.553 4.443-1.846 1.375-4.014 2.584-6.383 2.788-1.447 0.12-2.695 1.61-3.9 0.355-2.351 0.623-3.855 0.323-6.164-0.763-0.376 0.329-2.356-0.573-3.05-1.374-1.848-0.954-4.186-1.539-4.86-3.8-1.458-1.896-2.442-2.782-3.16-5.109-0.548-0.827-0.637-1.899-1.074-2.043 0.245-2.001-0.711-4.086-0.562-5.206 0.404-2.195 0.21-4.275 1.441-6.217 0.577-2.368 2.246-4.655 3.756-6.265 1.88-0.913 2.281-3.308 4.582-3.291 0.951-0.84 3.999-1.08 3.059-1.994 1.715 0.397 4.81-0.182 5.667-0.503-1.993-0.801 1.303-2.287-1.089-2.61-1.121-0.079 1.995-2.024-0.174-1.332-2.199 0.037-4.099 1.377-5.957 1.457-1.76-0.21-3.435 1.691-4.386 1.868-1.688 1.265-4.139 3.285-5.093 4.124-1.037 1.42-2.514 3.635-2.993 4.646-0.72 0.845-2.022 3.934-1.835 5.826-1.223-0.378-0.535 2.847-0.821 3.923 0.17 2.148 0.27 4.681 0.808 6.519-0.196 2.195 1.94 4.361 2.586 5.389-0.803 0.165 1.596 2.156 1.771 3.13 0.966 1.612 2.54 2.408 3.166 3.391 0.282 1.507 4.165 1.604 4.098 2.81-2.077 0.713-3.498 2.806-0.92 3.956 1.592 1.036 3.9 0.725 5.702 1.754 2.67 0.677 3.645-2.638 5.79-3.381 1.613 1.337 3.503 4.174 5.944 2.4 1.416-1.656 4.7-0.278 5.087-2.755 2.456-1.639-3.346-2.914 0.074-3.961 1.354-0.85 4.201-1.788 3.772-3.154 2.324-0.998 4.366-4.341 4.361-5.54 1.739-1.245 1.896-3.975 2.014-5.21-0.06-0.934 1.031-4.524 0.482-5.519-0.675 0.383 0.248-0.909 0.05-1.151m-15.51-11.347c-0.481-0.732 0.74-2.192 1.042-1.127 0.483-0.723-1.228-0.512-1.519-1.126-0.722 0.724 1.186 0.171 0.141 1.333-0.568 0.751-0.696 0.726 0.337 0.921zm-1.828-2.148c0.417 1.032-0.906 0.64 0 0zm-0.637 1.14c-0.144-1.173 1.189 0.046 0.55 0.302 1.242 0.708 0.255-0.731 0.474-1.474-0.058-0.969-0.784 0.433-1.108 0.679-0.714 0.436-0.544 0.568 0.084 0.493zm-9.918 12.568c1.042-1.511-2.122 2.014-0.21 0.222l0.21-0.222zm-0.979 2.253c0.43 1.556 0.617 0.313 0 0zm-2.018-1.061c0.262 0.127-2.913-2.576-0.971-0.575 0.281 0.254 0.618 0.44 0.971 0.575m15.301-1.695c1.009-0.582 1.348-3.98 0.789-1.323-0.192 0.417-0.867 0.861-0.789 1.323m-1.351 2.068c0.503-0.775-1.068-3.789-0.21-1.309 0.147 0.416 0.292 0.861 0.21 1.309zm1.086 1.593c0.167 0.716-0.398 4.303 0.066 1.774-0.034-0.507 0.305-1.497-0.066-1.774zm9.625-0.345c-0.501 0.834-0.502-0.761 0 0zm-0.556-0.452c-0.686-0.51 0.711-0.393 0 0zm-0.265 1.193c-0.94-0.612 0.91-0.538 0 0zm-0.343-0.877c0.672-0.942 0.601 0.92 0 0zm-0.161-0.316c-0.791-0.493 0.726-0.516 0 0zm-0.212 0.768c-0.683-0.527 0.711-0.404 0 0zm1.273-0.768c-0.293-1.426-2.325 0.354-1.154 0.9 0.214 1.051 2.266-0.561 1.154-0.9m-23.76-14.24c1.47-0.279 0.704 0.897 0.027 0.555 1.18 0.998 1.526-1.694-0.145-0.954-0.53-0.601 1.553-0.685-0.012-0.635-0.486 0.208-0.481 1.028 0.131 1.035m6.389-2.068c1.527 0.464 0.112 1.105-0.264 0.478 0.708 1.455 2.103-0.826 0.263-1.06 0.342-0.411 1.555 0.174 0.347-0.398-0.55-0.061-0.875 0.7-0.347 0.981m-5.355 0.664c0.723 0.421 0.269 2.071 1.041 1.417 0.628-0.136-1.017-1.213-0.482-1.872-0.137 0.103-1.235 0.456-0.559 0.454m1.14-0.161c0.838-1.5 0.87 1.547 1.098 1.153 1.303-0.164-0.204-0.716-0.14-1.629 0.28-0.184 1.182-0.357 0.436-0.483-0.497 0.353-2.061 0.369-1.394 0.959l0 0zm-10.102 10.288c1.22 1.029 3.011-0.707 1.084-1.3-0.909-0.723-1.054 0.209 0.107 0.186 1.834 0.797-0.779 1.634-1.004 0.452-0.179-0.137-0.659 1.328-0.186 0.662m9.334 20.048c-0.165-0.891 1.447-1.632 0.204-1.786-0.067 0-0.526 1.709-0.769 1.728 0.142 0.04 1.06 0.504 0.566 0.057m-6.733-25.111c0.491-0.106 2.209 1.033 1.755 0.121-0.516-0.48-0.465-2.294-1.12-1.103 1.274 0.253 0.852 1.621-0.284 0.547 0.444-0.763-1.022 0.836-0.35 0.435m13.046-11.853c1.523-0.377-0.122 1.404 0 0m-0.054 0.795c2.998 0.133-1.237-2.817 0 0m-13.546 11.932c0.883 0.045 1.319 1.693 1.683 0.553 0.071-0.098-1.541-0.84-1.522-1.104-0.069 0.139-0.728 0.932-0.161 0.551m-1.17 2.068c0.867-0.017 1.626 1.571 1.644 0.293-1.017 0.305-1.716-0.669-0.172-0.677 1.466-0.139 0.232-0.693-0.464-1.007-0.693-0.662-0.62 0.424 0.516 0.415 0.253 0.429-1.607 0.236-1.744 0.979-0.27 0.175 0.284 0.305 0.221 0m5.17-6.31c1.144-0.727 0.448 1.61 0 0m-0.396 0.291c0.827 0.318 0.647 2.081 1.413 1.118-0.009-0.202-1.192-1.274 0.444-0.404 1.226-0.433-1.003-0.397-0.75-1.363-0.159-0.328-1.849 0.853-1.106 0.648m10.555-6.098c-1.636-0.066 0.746-1.374 0 0zm0.183-0.851c-3.011-0.06 1.146 2.744 0 0zm-3.792 4.111c0.859 0.712-0.472 0.985 0 0zm0.053 1.435c-0.963-0.724 1.135-1.078 0.451-0.106 1.479-0.042 0.314-0.56-0.06-1.336-0.525-1.173-0.631 0.28-0.715 0.819-0.011 0.648-0.75 0.849 0.324 0.624zm-10.048 23.97c-1.084 0.036-0.708-2.309 0.688-1.402 0.316 2.311 0.409-1.575-1.272-0.349-0.805 0.395-0.273 2.069 0.584 1.751zm4.692 2.783c0.62 0.066-0.773-0.933-0.375 0.184-0.702 1.283-0.516-0.527-0.676-1.132-0.542-1.1-0.791 1.367-1.44 1.215 0.582 1.12 0.66-1.439 1.114-0.718 0.159 0.461-0.066 2.434 0.609 1.352 0.258-0.297 0.429-0.686 0.768-0.901m1.642 1.271c0.988-0.486-0.974-0.724-1.246-1.298-0.787 0.647 1.131 0.306 0.024 1.367-0.686 0.564-0.537 0.819 0.27 0.914-0.513-0.194 0.899-2.579 0.951-0.983m-7.025-6.228c-0.414-1.251 0.844-0.884 0.505-0.133 0.818-1.183-1.476-1.178-0.941 0.262-0.898 0.723-0.244-1.766-0.781-0.289 0.064 0.673 1.106 0.97 1.217 0.159m2.81 4.484c-1.738 0.229-0.123-1.861-0.132-0.427 0.99-0.421-0.831-0.954 0.504-1.059 0.689 1.373 0.358-0.212-0.424-0.581-0.004 0.107-1.133 1.379-1.364 1.31 0.449 0.263 0.914 1.472 1.416 0.758m-0.691-2.309c0.687-0.315-0.41-0.98-0.767 0.141-1.016 0.209-0.544 1.07-0.266 0.813 0.272-0.378 0.698-0.63 1.033-0.954zm0.081-21.134c0.861 0.15 0.897 1.916 1.439 1.003 0.988-0.389 0.534-1.9 0.231-0.391-0.865 0.318-0.682-0.791-0.274-0.709-0.388-0.792-0.834 0.915-0.997-0.406 1.398-0.692-0.21-0.368-0.571 0.439-0.279 0.068 0.147 0.345 0.172 0.065m-3.445 12.833c0.54-0.732 0.47 0.725 0 0zm-0.24-0.635c0.603-0.934 0.534 0.908 0 0zm0.24-0.797c0.845 0.492-0.762 0.505 0 0zm-0.504 1.512c-0.829-0.474 0.743-0.506 0 0zm-0.347-0.848c0.504-0.685 0.4 0.706 0 0zm1.485-0.078c0.83 0.538-0.806 0.475 0 0zm-0.213 1.086c1.253-0.673-0.5-2.511-0.876-1.271-1.129 0.061-0.077 1.784 0.876 1.271" style="fill-rule:evenodd;fill:#212121"/>
  </g>
</svg>
