<?xml version="1.0" encoding="UTF-8" standalone="no"?>
<svg
   xmlns:dc="http://purl.org/dc/elements/1.1/"
   xmlns:cc="http://creativecommons.org/ns#"
   xmlns:rdf="http://www.w3.org/1999/02/22-rdf-syntax-ns#"
   xmlns:svg="http://www.w3.org/2000/svg"
   xmlns="http://www.w3.org/2000/svg"
   xmlns:xlink="http://www.w3.org/1999/xlink"
   xml:space="preserve"
   enable-background="new 0 0 32 32"
   viewBox="0 0 32 32"
   height="32px"
   width="32px"
   y="0px"
   x="0px"
   id="Layer_1"
   version="1.1"><metadata
     id="metadata4159"><rdf:RDF><cc:Work
         rdf:about=""><dc:format>image/svg+xml</dc:format><dc:type
           rdf:resource="http://purl.org/dc/dcmitype/StillImage" /><dc:title></dc:title></cc:Work></rdf:RDF></metadata><defs
     id="defs4157" /><g
     id="g4143"><defs
       id="defs4145"><rect
         height="32"
         width="32"
         id="SVGID_1_" /></defs><clipPath
       id="SVGID_2_"><use
         id="use4149"
         overflow="visible"
         xlink:href="#SVGID_1_" /></clipPath><path
       style="fill:none"
       id="path4151"
       d="M1.641,0C1.641,0,0,0,0,1.641v28.718C0,30.359,0,32,1.641,32h28.718   c0,0,1.641,0,1.641-1.641V1.641C32,1.641,32,0,30.359,0H1.641z"
       fill="#50BD8C"
       clip-path="url(#SVGID_2_)" /><path
       id="path4153"
       d="M13.846,8.897c-3.187,0-5.77,2.584-5.77,5.77c0,3.186,2.583,5.769,5.77,5.769   c3.187,0,5.769-2.583,5.769-5.769C19.615,11.481,17.033,8.897,13.846,8.897 M26.104,24.204c0.348,0.348,0.563,0.83,0.563,1.36   c0,1.062-0.86,1.923-1.923,1.923c-0.531,0-1.013-0.216-1.36-0.563l-5.637-5.637c-1.145,0.678-2.476,1.072-3.901,1.072   c-4.248,0-7.692-3.444-7.692-7.692c0-4.249,3.444-7.692,7.692-7.692c4.249,0,7.692,3.444,7.692,7.692   c0,1.426-0.395,2.757-1.071,3.901L26.104,24.204z"
       fill="#FFFFFF"
       clip-path="url(#SVGID_2_)" /></g></svg>