<?xml version="1.0" encoding="UTF-8" standalone="no"?>
<svg
   xmlns:dc="http://purl.org/dc/elements/1.1/"
   xmlns:cc="http://creativecommons.org/ns#"
   xmlns:rdf="http://www.w3.org/1999/02/22-rdf-syntax-ns#"
   xmlns:svg="http://www.w3.org/2000/svg"
   xmlns="http://www.w3.org/2000/svg"
   version="1.1"
   id="svg4180"
   viewBox="0 0 43.546002 45.000001"
   height="45"
   width="43.546001">
  <defs
     id="defs4182" />
  <metadata
     id="metadata4185">
    <rdf:RDF>
      <cc:Work
         rdf:about="">
        <dc:format>image/svg+xml</dc:format>
        <dc:type
           rdf:resource="http://purl.org/dc/dcmitype/StillImage" />
        <dc:title></dc:title>
      </cc:Work>
    </rdf:RDF>
  </metadata>
  <g
     transform="translate(0,-1007.3622)"
     id="layer1">
    <path
       d="m 18.749001,1033.7752 c 2.0656,0 3.7501,1.6845 3.7501,3.7496 0,2.0658 -1.6845,3.7503 -3.7501,3.7503 -2.065,0 -3.7502,-1.6845 -3.7502,-3.7503 0,-2.0651 1.6852,-3.7496 3.7502,-3.7496 z m -10.1506003,8.3825 0,0 10.3666003,-12.3014 -10.1836003,-12.5085 c -2.6851,3.4687 -4.2875,7.8152 -4.2875,12.5243 0,4.6016 1.5292,8.8576 4.1045,12.2856 z m 32.2725003,-34.7955 2.6743,0 0,13.6915 -0.027,0 c -3.3074,-6.905 -10.368,-11.6937 -18.5119,-11.6937 -4.7626,0 -9.1549,1.6375 -12.6424,4.3782 l 13.3569,16.0924 -13.718,15.8847 c 3.5434,2.9149 8.0747,4.6688 13.0035,4.6688 8.1281,0 15.1773,-4.7692 18.4925,-11.6525 l 0.047,0 0,13.6306 -3.9647,0 0,0 -25.2881,0 0,0 -14.29280028284,0 6.28529998284,-7.4585 c -3.3171,-4.1201 -5.30709998,-9.3502 -5.30709998,-15.0316 0,-5.8095 2.07999998,-11.1491 5.53489998,-15.3114 l -5.86059998,-7.1985 14.93110028,0 0,0 25.2878,0 0,0"
       style="fill:#616161;fill-opacity:1;fill-rule:evenodd;stroke:none"
       id="path4150" />
  </g>
</svg>
